<?xml version="1.0" standalone="no"?>
<!DOCTYPE svg PUBLIC "-//W3C//DTD SVG 1.1//EN" "http://www.w3.org/Graphics/SVG/1.1/DTD/svg11.dtd" >
<svg xmlns="http://www.w3.org/2000/svg" xmlns:xlink="http://www.w3.org/1999/xlink" version="1.1">
<metadata>
Created by FontForge 20161003 at Sat Nov 23 07:37:50 2019
 By www-data
Copyright (c) 2002, design: James Goggin/Practise, published by www.lineto.com. All rights reserved. 
</metadata>
<defs>
<font id="CourierSans-Bold" horiz-adv-x="580" >
  <font-face 
    font-family="Courier Sans"
    font-weight="700"
    font-stretch="normal"
    units-per-em="1000"
    panose-1="2 0 8 6 8 0 0 2 0 4"
    ascent="800"
    descent="-200"
    x-height="445"
    cap-height="579"
    bbox="-160 -271 822 875"
    underline-thickness="58"
    underline-position="-178"
    stemh="20"
    stemv="96"
    unicode-range="U+0020-FB02"
  />
<missing-glyph horiz-adv-x="588" 
d="M539 364c0 -54 -39 -94 -93 -94h-72c11 -15 17 -35 17 -54c0 -54 -39 -93 -93 -93h-249v248c0 54 39 94 93 94c20 0 39 -6 55 -17v71c0 54 39 94 93 94s93 -40 93 -94v-62h63c54 0 93 -40 93 -93zM522 364c0 45 -31 76 -76 76h-79v79c0 45 -32 77 -77 77s-76 -32 -76 -77
v-232h232c45 0 76 32 76 77z" />
    <glyph glyph-name="fi" unicode="fi" horiz-adv-x="645" 
d="M565 58c0 -36 0 -70 -50 -70c-51 0 -50 33 -50 70v285h-201v-285c0 -36 1 -70 -49 -70s-51 31 -51 70v285h-61c-26 0 -53 13 -53 48c0 34 24 47 51 47h59v39c2 118 82 164 188 164c41 0 90 -7 90 -59c0 -21 -15 -49 -44 -49c-24 0 -46 11 -71 11c-45 0 -63 -27 -63 -75
v-32h255c27 0 50 -21 50 -49v-330z" />
    <glyph glyph-name="fl" unicode="fl" horiz-adv-x="647" 
d="M557 57c0 -35 2 -69 -48 -69s-50 34 -50 69v493h-138c-47 0 -69 -31 -69 -81v-19h67c19 0 57 -6 57 -46c0 -39 -34 -49 -56 -49h-63v-298c0 -35 0 -69 -50 -69s-50 30 -50 69v299h-50c-24 0 -57 9 -57 48s33 46 56 46h47v27c0 148 113 162 225 162h139c12 0 40 -5 40 -32
v-550z" />
    <glyph glyph-name=".notdef" horiz-adv-x="588" 
d="M539 364c0 -54 -39 -94 -93 -94h-72c11 -15 17 -35 17 -54c0 -54 -39 -93 -93 -93h-249v248c0 54 39 94 93 94c20 0 39 -6 55 -17v71c0 54 39 94 93 94s93 -40 93 -94v-62h63c54 0 93 -40 93 -93zM522 364c0 45 -31 76 -76 76h-79v79c0 45 -32 77 -77 77s-76 -32 -76 -77
v-232h232c45 0 76 32 76 77z" />
    <glyph glyph-name="space" unicode=" " horiz-adv-x="320" 
 />
    <glyph glyph-name="Eth" unicode="&#xd0;" horiz-adv-x="576" 
d="M536 289c0 -86 -27 -161 -80 -218c-51 -52 -119 -71 -224 -71l-103 -1c-31 0 -49 18 -49 48v213h-27c-34 0 -56 10 -56 45c0 34 22 43 56 43h27v183c0 32 19 48 49 48h140c173 0 267 -126 267 -290zM431 289c0 138 -58 195 -208 195h-42v-136h101c37 0 58 -9 58 -43
s-22 -45 -58 -45h-101v-166h44c145 0 206 56 206 195z" />
    <glyph glyph-name="eth" unicode="&#xf0;" horiz-adv-x="605" 
d="M560 237c0 -154 -108 -248 -257 -248c-139 0 -258 88 -258 238c0 140 112 236 246 236c14 0 27 -2 40 -4c-13 14 -37 38 -51 51c-47 -24 -114 -61 -138 -29c-15 16 -6 32 3 44c14 14 57 30 70 36c-14 9 -39 15 -49 26c-15 16 -6 33 12 43c29 15 55 4 76 -5
c15 -7 16 -9 43 -23l72 32c11 0 30 22 55 -3c22 -27 -2 -54 -27 -65l-30 -13c90 -75 193 -188 193 -316zM451 227c0 85 -63 144 -148 144c-86 0 -149 -58 -149 -144c0 -85 64 -145 149 -145s148 60 148 145z" />
    <glyph glyph-name="Lslash" unicode="&#x141;" horiz-adv-x="531" 
d="M496 47c0 -33 -20 -47 -52 -47h-316c-31 0 -48 18 -48 48v156c-16 -11 -43 -34 -64 -34s-40 21 -40 42c0 19 10 28 33 44l71 50v218c0 36 -2 70 49 70c52 0 53 -33 53 -70v-162c5 3 85 65 108 65c22 0 41 -23 41 -44c0 -18 -12 -29 -30 -41l-119 -81v-167h262
c32 0 52 -15 52 -47z" />
    <glyph glyph-name="lslash" unicode="&#x142;" horiz-adv-x="237" 
d="M287 424c0 -17 -17 -28 -27 -39c-3 -2 -94 -66 -94 -66v-260c0 -37 2 -71 -50 -71c-50 0 -49 32 -49 71v211c-8 -5 -60 -45 -78 -45c-20 0 -39 16 -39 39c0 19 11 28 31 42l86 60v201c0 35 -3 69 48 69c52 0 51 -33 51 -69v-153c6 4 65 50 83 50c21 0 38 -19 38 -40z" />
    <glyph glyph-name="Scaron" unicode="&#x160;" horiz-adv-x="562" 
d="M512 170c0 -134 -116 -186 -228 -186s-216 55 -233 172c-5 34 16 57 51 57c81 0 20 -138 185 -138c60 0 121 28 121 86c0 46 -30 67 -78 74c-111 15 -265 24 -265 178c0 122 119 182 219 182c71 0 146 -21 188 -84c17 -25 36 -83 3 -107c-37 -28 -73 0 -85 31
c-19 51 -54 69 -109 69c-59 0 -113 -30 -113 -87c0 -46 44 -63 95 -69c69 -10 149 -11 203 -63c31 -29 46 -68 46 -115zM443 805c16 -14 10 -35 0 -45l-127 -100c-20 -16 -49 -16 -68 0l-126 99c-16 9 -13 32 -3 46c8 6 28 11 38 5h-1l126 -67l124 67c12 10 30 1 37 -5z" />
    <glyph glyph-name="scaron" unicode="&#x161;" horiz-adv-x="508" 
d="M410 663c14 -16 10 -35 0 -44l-128 -102c-19 -15 -49 -15 -68 0l-126 100c-16 10 -13 33 -3 46c10 12 27 11 38 5l-2 1l127 -68l125 67c12 10 27 7 37 -5zM458 136c0 -95 -91 -148 -202 -148c-131 0 -206 64 -206 140c0 16 1 48 42 48c38 1 46 -24 53 -48
c7 -26 33 -53 111 -53c81 0 106 35 106 56c0 46 -57 51 -121 59c-82 11 -177 28 -177 144c0 91 88 130 181 130c80 0 184 -22 189 -122c1 -29 -8 -52 -39 -53c-34 -1 -46 19 -52 42s-27 45 -97 45c-68 0 -86 -23 -86 -44c0 -42 74 -47 105 -51c80 -14 193 -36 193 -145z" />
    <glyph glyph-name="Yacute" unicode="&#xdd;" horiz-adv-x="536" 
d="M432 786c13 -25 44 -67 -1 -83l-254 -90l-24 48l233 137c22 12 39 -2 46 -12zM472 498l-154 -279v-161c0 -36 2 -70 -49 -70s-52 31 -52 70v162l-164 300c-15 26 -11 47 18 64c48 28 62 1 80 -34l118 -223l127 243c16 31 39 33 70 14c41 -26 24 -54 6 -86z" />
    <glyph glyph-name="yacute" unicode="&#xfd;" horiz-adv-x="550" 
d="M501 368l-271 -534c-14 -27 -31 -39 -63 -24c-46 22 -28 51 -11 84l75 149l-165 325c-17 33 -30 64 14 86c45 22 61 -5 77 -39l130 -264l141 281c14 27 33 38 64 23c46 -23 25 -56 9 -87zM466 641c9 -17 10 -38 -17 -48l-251 -89l-24 47l229 134c24 14 40 -2 46 -14z" />
    <glyph glyph-name="Thorn" unicode="&#xde;" horiz-adv-x="488" 
d="M443 290c0 -114 -78 -172 -215 -172h-57v-59c0 -36 1 -70 -50 -70c-49 0 -51 31 -51 70v465c0 37 -2 71 49 71c52 0 52 -33 52 -71v-62h57c137 0 215 -58 215 -172zM330 288c0 51 -28 79 -102 79h-57v-159h57c72 0 102 27 102 80z" />
    <glyph glyph-name="thorn" unicode="&#xfe;" horiz-adv-x="586" 
d="M541 217c0 -132 -95 -223 -226 -223c-56 0 -106 17 -145 48v-163c0 -36 3 -70 -49 -70c-50 0 -51 31 -51 70v681c0 37 -1 71 50 71c52 0 50 -34 50 -71v-154c40 31 87 47 138 47c134 0 233 -103 233 -236zM432 222c0 77 -56 131 -133 131c-78 0 -131 -54 -131 -131
c0 -78 53 -132 131 -132s133 53 133 132z" />
    <glyph glyph-name="Zcaron" unicode="&#x17d;" horiz-adv-x="510" 
d="M460 47c0 -32 -19 -47 -51 -47h-300c-33 0 -59 21 -59 56c0 19 9 40 25 63l251 365h-224c-32 0 -51 15 -51 47s19 48 51 48h288c41 0 70 -17 70 -55c0 -19 -8 -37 -20 -54l-258 -376h227c31 0 51 -14 51 -47zM410 805c16 -14 10 -35 0 -45l-127 -100
c-20 -16 -49 -16 -68 0l-126 99c-16 9 -13 32 -3 46c8 6 28 11 38 5h-1l126 -67l124 67c12 10 30 1 37 -5z" />
    <glyph glyph-name="zcaron" unicode="&#x17e;" horiz-adv-x="511" 
d="M461 46c0 -31 -19 -47 -51 -47h-294c-39 0 -66 18 -66 56c0 21 8 36 37 65l238 240h-214c-31 0 -52 13 -52 45s19 47 51 47h272c45 0 79 -18 79 -60c0 -24 -21 -49 -47 -75l-223 -225h218c31 0 52 -13 52 -46zM423 673c16 -14 10 -35 0 -45l-127 -100
c-20 -16 -49 -16 -68 0l-126 99c-16 9 -13 32 -3 46c8 6 28 11 38 5h-1l126 -67l124 67c12 10 30 1 37 -5z" />
    <glyph glyph-name="onehalf" unicode="&#xbd;" horiz-adv-x="603" 
d="M288 395c0 -27 -22 -34 -37 -34h-117c-15 0 -34 9 -34 34c0 27 24 32 38 32h20v127c-4 -1 -10 -1 -14 -1c-18 1 -40 12 -40 33c0 43 62 36 86 38c28 1 40 -12 40 -38v-159h20c13 0 38 -5 38 -32zM535 418c8 -18 1 -44 -21 -55l-398 -202c-27 -13 -49 -1 -57 17
c-8 19 -4 43 21 55l398 202c27 14 50 0 57 -17zM500 -1c0 -18 -16 -34 -34 -34h-120c-15 0 -39 7 -39 36c0 12 5 20 13 28l6 6c16 16 91 89 91 109c0 14 -7 20 -16 20c-15 0 -22 -13 -31 -22c-29 -32 -81 13 -53 47c22 26 47 40 85 40c46 0 88 -34 88 -84
c0 -39 -42 -85 -70 -112h47c19 0 33 -17 33 -34z" />
    <glyph glyph-name="onequarter" unicode="&#xbc;" horiz-adv-x="603" 
d="M290 393c0 -26 -22 -32 -37 -32h-117c-15 0 -34 8 -34 32c0 28 24 33 38 33h20v127c-21 -2 -54 2 -54 32c0 43 61 37 86 38c28 2 40 -11 40 -38v-159h20c14 0 38 -5 38 -33zM535 418c8 -18 1 -44 -21 -55l-398 -202c-27 -13 -49 -1 -57 17c-8 19 -4 43 21 55l398 202
c27 14 50 0 57 -17zM483 48c0 -17 -12 -30 -28 -33v-24c0 -19 -15 -34 -33 -34c-19 0 -34 15 -34 34v24h-58c-22 0 -31 17 -31 31v11c0 10 7 22 10 28l70 121c8 14 22 20 36 20c21 0 40 -18 40 -41v-104c16 -3 28 -16 28 -33zM388 82v14l-8 -14h8z" />
    <glyph glyph-name="onesuperior" unicode="&#xb9;" horiz-adv-x="450" 
d="M390 276c0 -32 -22 -39 -44 -39h-222c-22 0 -44 7 -44 39c0 34 25 39 45 39h62v234l-59 -10c-25 -5 -42 13 -42 37c0 26 20 33 35 36c43 9 85 25 129 25c20 0 33 -12 33 -32v-290h63c22 0 44 -7 44 -39z" />
    <glyph glyph-name="threequarters" unicode="&#xbe;" horiz-adv-x="603" 
d="M303 442c0 -62 -60 -87 -105 -87c-13 0 -45 6 -68 17c-15 8 -27 18 -27 31c0 27 16 33 36 31s44 -10 62 -11c16 -1 27 4 27 23c0 11 -9 20 -22 20c-21 0 -38 4 -38 30c0 44 53 20 53 46c0 36 -48 6 -64 2c-33 -7 -71 41 -8 67c20 8 47 13 57 13c38 0 89 -23 89 -75
c0 -21 -9 -37 -22 -49c18 -13 30 -31 30 -58zM535 418c8 -18 1 -44 -21 -55l-398 -202c-27 -13 -49 -1 -57 17c-8 19 -4 43 21 55l398 202c27 14 50 0 57 -17zM483 50c0 -16 -12 -30 -28 -33v-24c0 -18 -15 -33 -33 -33c-19 0 -34 14 -34 33v24h-58c-22 0 -31 18 -31 31v12
c0 10 6 22 10 28l70 121c8 13 22 19 35 19c22 0 41 -17 41 -41v-103c15 -3 28 -17 28 -34zM388 84v14l-8 -14h8z" />
    <glyph glyph-name="threesuperior" unicode="&#xb3;" horiz-adv-x="453" 
d="M393 348c0 -80 -77 -130 -178 -130c-41 0 -76 7 -106 20c-28 13 -49 30 -49 56c0 23 22 44 46 44c20 0 64 -34 113 -34c48 0 71 22 71 50c0 66 -122 12 -122 82c0 68 106 23 106 78c0 21 -14 36 -46 36c-37 0 -76 -39 -101 -39c-22 0 -42 16 -42 40c0 25 21 44 50 59
c32 18 65 26 101 26c74 0 136 -47 136 -111c0 -32 -13 -60 -39 -81c38 -24 60 -57 60 -96z" />
    <glyph glyph-name="twosuperior" unicode="&#xb2;" horiz-adv-x="447" 
d="M367 281c0 -23 -20 -42 -44 -42h-194c-21 0 -49 9 -49 45c0 22 13 32 26 45c30 31 153 149 153 186c0 28 -16 45 -39 45c-30 0 -43 -19 -61 -39c-17 -20 -46 -14 -60 -2c-16 14 -23 41 -5 61c34 38 70 61 127 61c68 0 128 -50 128 -123c0 -68 -82 -148 -131 -194h107
c24 0 42 -20 42 -43z" />
    <glyph glyph-name="brokenbar" unicode="&#xa6;" horiz-adv-x="259" 
d="M179 367c0 -28 -22 -49 -50 -49c-26 0 -49 21 -49 49v282c0 27 22 49 49 49s50 -21 50 -49v-282zM179 -120c0 -28 -22 -49 -50 -49c-26 0 -49 21 -49 49v283c0 28 22 49 49 49s50 -21 50 -49v-283z" />
    <glyph glyph-name="minus" unicode="&#x2212;" horiz-adv-x="644" 
d="M574 307c0 -28 -23 -47 -52 -47h-405c-28 0 -51 19 -51 47s24 49 51 49h405c29 0 52 -20 52 -49z" />
    <glyph glyph-name="multiply" unicode="&#xd7;" horiz-adv-x="596" 
d="M482 466c16 -17 21 -45 -3 -69l-113 -113l113 -113c25 -25 19 -55 1 -71s-47 -21 -70 2l-113 114l-113 -113c-24 -24 -54 -18 -71 0c-16 17 -20 45 4 68l112 113l-113 113c-23 24 -19 53 -2 70c17 18 47 23 71 -1l114 -114l112 113c24 24 54 18 71 1z" />
    <glyph glyph-name="exclam" unicode="!" horiz-adv-x="364" 
d="M251 568l-16 -302c-2 -30 -24 -49 -53 -49s-50 19 -52 49l-16 301c-2 41 24 73 68 73c45 0 71 -33 69 -72zM274 77c0 -56 -40 -89 -92 -89c-50 0 -92 35 -92 89s41 87 92 87s92 -33 92 -87z" />
    <glyph glyph-name="quotedbl" unicode="&#x22;" horiz-adv-x="420" 
d="M350 632l-15 -178c-1 -17 -4 -43 -38 -43h-10c-33 0 -37 26 -38 43l-14 179c0 19 10 36 35 36h44c26 0 37 -17 36 -37zM185 632l-14 -178c-2 -17 -5 -43 -38 -43h-11c-33 0 -36 26 -38 43l-14 179c0 19 10 36 35 36h45c24 0 37 -17 35 -37z" />
    <glyph glyph-name="numbersign" unicode="#" horiz-adv-x="679" 
d="M634 406c0 -27 -20 -41 -43 -41h-91l-33 -89h81c23 0 44 -14 44 -42c0 -29 -21 -41 -44 -41h-110l-72 -197c-11 -32 -38 -39 -59 -29c-20 9 -33 33 -22 65l59 161h-102l-71 -196c-11 -33 -39 -40 -59 -30c-20 9 -33 33 -22 65l59 161h-65c-24 0 -44 12 -44 41
c0 28 20 42 44 42h95l33 89h-86c-24 0 -44 11 -44 41c0 26 18 42 44 42h116l71 196c12 33 38 41 59 31c20 -9 33 -34 22 -65l-59 -162h102l72 196c12 33 37 41 57 32s34 -34 23 -66l-59 -162h61c23 0 43 -14 43 -42zM407 365h-102l-33 -89h102z" />
    <glyph glyph-name="dollar" unicode="$" horiz-adv-x="581" 
d="M500 202c0 -103 -69 -159 -158 -168v-85c0 -34 3 -71 -47 -71c-49 0 -47 34 -47 71v89c-92 18 -147 68 -168 162c-6 31 11 51 45 51c82 0 21 -133 172 -133c128 0 142 121 37 140c-98 18 -239 33 -240 165c-1 95 73 163 149 163v8c1 32 -4 73 45 73c51 0 49 -38 49 -74
v-11c45 -9 101 -30 128 -81c14 -25 30 -74 3 -97c-38 -31 -72 10 -81 32c-17 47 -49 67 -97 67c-53 0 -100 -20 -100 -71c-1 -66 106 -70 152 -79c85 -15 159 -58 158 -151z" />
    <glyph glyph-name="percent" unicode="%" horiz-adv-x="704" 
d="M360 480c0 -88 -69 -140 -150 -140s-150 51 -150 140s69 140 150 140s150 -53 150 -140zM593 548c16 -18 20 -47 -6 -72l-410 -410c-28 -28 -59 -22 -76 -3c-15 17 -18 44 6 68l416 414c25 25 54 20 70 3zM644 130c0 -87 -69 -140 -149 -140c-81 0 -150 51 -150 140
s69 140 150 140c80 0 149 -53 149 -140zM281 480c0 41 -27 62 -71 62c-41 0 -71 -23 -71 -62s31 -63 71 -63c44 0 71 22 71 63zM566 130c0 41 -27 62 -71 62c-42 0 -71 -22 -71 -62c0 -39 31 -63 71 -63c44 0 71 22 71 63z" />
    <glyph glyph-name="ampersand" unicode="&#x26;" horiz-adv-x="533" 
d="M471 244l-43 -121l32 -45c37 -52 -44 -115 -83 -60l-14 19c-39 -30 -83 -48 -134 -48c-95 0 -159 71 -159 164c0 73 41 119 90 159c-13 20 -26 46 -33 61c-47 97 27 186 127 186c41 0 76 -21 111 -39c26 -14 30 -41 21 -61c-10 -21 -34 -34 -64 -17c-18 9 -43 26 -64 26
c-35 0 -52 -32 -33 -60l138 -197c6 19 25 71 25 71c7 21 28 34 54 27c30 -9 37 -40 29 -65zM306 114l-89 118c-39 -33 -52 -85 -17 -122c31 -32 71 -24 106 4z" />
    <glyph glyph-name="quotesingle" unicode="'" horiz-adv-x="256" 
d="M186 632l-14 -178c-2 -17 -5 -43 -38 -43h-12c-33 0 -36 26 -38 43l-14 178c-2 22 12 37 36 37h44c24 0 38 -16 36 -37z" />
    <glyph glyph-name="parenleft" unicode="(" horiz-adv-x="377" 
d="M297 -156c0 -53 -48 -39 -72 -17c-96 84 -145 253 -145 372c0 120 46 279 136 365c24 23 81 47 81 -9c0 -8 -6 -23 -17 -48c-49 -109 -80 -190 -80 -308c0 -107 29 -201 75 -297c15 -31 22 -50 22 -58z" />
    <glyph glyph-name="parenright" unicode=")" horiz-adv-x="377" 
d="M297 199c0 -119 -49 -288 -145 -372c-24 -22 -72 -36 -72 17c0 8 7 27 21 58c46 96 76 190 76 297c0 118 -32 199 -81 308c-11 25 -16 40 -16 48c0 56 57 32 81 9c90 -86 136 -245 136 -365z" />
    <glyph glyph-name="asterisk" unicode="*" horiz-adv-x="563" 
d="M480 448c5 -16 9 -37 -22 -43l-107 -25l72 -82c10 -12 16 -26 3 -39c-11 -11 -37 -31 -53 -38c-18 -6 -27 1 -35 14l-56 95l-56 -95c-9 -14 -19 -20 -36 -15c-7 2 -48 34 -53 39c-14 13 -6 28 3 39l72 82l-106 25c-15 3 -33 10 -24 34l17 51c6 18 20 24 38 16l102 -44
l-10 110c0 28 13 34 35 34h36c22 0 35 -6 35 -34l-10 -110l100 43c29 12 38 -7 43 -22z" />
    <glyph glyph-name="plus" unicode="+" horiz-adv-x="608" 
d="M558 284c0 -31 -26 -48 -52 -48h-154v-159c0 -27 -17 -52 -48 -52c-28 0 -50 26 -50 52v159h-153c-25 0 -51 17 -51 48c0 28 25 49 51 49h153v160c0 28 19 51 50 51s48 -24 48 -51v-160h154c27 0 52 -19 52 -49z" />
    <glyph glyph-name="comma" unicode="," horiz-adv-x="328" 
d="M280 126l-127 -265c-19 -39 -52 -19 -80 -8c-26 10 -27 29 -23 45l60 236c6 25 16 36 44 36h102c32 0 30 -32 24 -44z" />
    <glyph glyph-name="hyphen" unicode="-" horiz-adv-x="606" 
d="M531 203c0 -20 -18 -36 -37 -36h-385c-23 0 -34 18 -34 36v50c0 21 16 33 34 33h385c16 0 37 -7 37 -33v-50z" />
    <glyph glyph-name="period" unicode="." horiz-adv-x="332" 
d="M262 90c0 -56 -38 -97 -96 -97s-96 39 -96 97c0 56 38 97 96 97c59 0 96 -39 96 -97z" />
    <glyph glyph-name="slash" unicode="/" horiz-adv-x="614" 
d="M511 653c0 -6 -1 -12 -3 -19c-2 -6 -5 -15 -11 -27l-286 -613c-9 -19 -17 -32 -24 -40c-8 -7 -17 -11 -27 -11c-15 0 -28 5 -40 14c-11 9 -17 21 -17 35c0 10 3 25 13 44l1 2l286 612c9 20 17 33 25 41c7 7 16 11 26 11c15 0 28 -5 40 -14c11 -9 17 -21 17 -35z" />
    <glyph glyph-name="zero" unicode="0" 
d="M494 308c0 -117 -34 -323 -204 -323s-204 206 -204 323c0 116 34 323 204 323s204 -207 204 -323zM389 308c0 66 -3 227 -99 227s-99 -161 -99 -227s4 -229 99 -229c96 0 99 163 99 229z" />
    <glyph glyph-name="one" unicode="1" 
d="M480 48c0 -34 -24 -48 -51 -48h-278c-27 0 -51 14 -51 48c0 39 32 46 64 46h77v434l-72 -17c-31 -7 -53 -1 -60 31c-7 28 4 48 38 57l138 37c34 9 57 -3 57 -41v-501h74c32 0 64 -7 64 -46z" />
    <glyph glyph-name="two" unicode="2" 
d="M511 51c0 -27 -17 -51 -52 -51h-327c-32 0 -63 12 -63 55c0 29 19 44 38 62c55 58 265 257 265 331c0 55 -34 97 -88 97c-58 0 -84 -35 -119 -73c-19 -22 -53 -17 -72 -1c-19 17 -25 49 -6 71c55 63 111 97 199 97c106 0 195 -76 195 -187c0 -117 -168 -270 -255 -350
h236c28 0 49 -25 49 -51z" />
    <glyph glyph-name="three" unicode="3" 
d="M498 183c0 -130 -103 -198 -221 -198c-50 0 -195 31 -195 100c0 28 23 47 49 47c31 0 88 -48 149 -48c64 0 110 36 110 99c0 136 -161 58 -161 143c0 80 143 17 143 130c0 51 -33 89 -82 89c-58 0 -103 -49 -132 -49c-24 0 -44 19 -44 44c0 62 135 99 181 99
c96 0 183 -65 183 -169c0 -60 -25 -108 -71 -135c58 -28 91 -83 91 -152z" />
    <glyph glyph-name="four" unicode="4" 
d="M496 193c0 -31 -18 -50 -51 -50h-23v-73c0 -36 4 -70 -48 -70c-50 0 -49 32 -49 70v73h-202c-25 0 -39 19 -39 43v32c0 16 6 31 15 47l199 340c14 24 23 27 37 25c33 -5 87 1 87 -47v-341h23c33 0 51 -18 51 -49zM325 490l-137 -248h137v248z" />
    <glyph glyph-name="five" unicode="5" 
d="M503 206c0 -132 -100 -218 -228 -218c-53 0 -99 7 -136 22c-36 15 -62 35 -62 65c0 26 23 46 47 46c13 0 29 -7 60 -19s60 -17 87 -17c73 0 125 45 125 119c0 68 -48 120 -115 120c-58 0 -102 -42 -130 -42c-38 0 -40 35 -40 62v246c0 37 26 43 57 43h235
c27 0 59 -10 59 -51c0 -39 -33 -50 -59 -50h-196v-131c29 10 63 16 92 16c120 0 204 -95 204 -211z" />
    <glyph glyph-name="six" unicode="6" 
d="M494 193c0 -111 -71 -207 -192 -207c-160 0 -216 153 -216 280c0 187 102 373 313 373c33 0 89 3 89 -45c0 -35 -33 -45 -70 -45c-121 0 -189 -79 -215 -186c28 22 61 35 100 35c115 0 191 -98 191 -205zM386 189c0 61 -32 113 -91 113c-56 0 -90 -49 -90 -106
c0 -61 34 -115 94 -115c56 0 87 50 87 108z" />
    <glyph glyph-name="seven" unicode="7" 
d="M487 594c0 -26 -2 -35 -10 -60l-164 -524c-5 -14 -16 -19 -30 -19h-41c-33 0 -38 26 -30 48l172 495h-246c-32 0 -45 21 -45 51c0 27 15 47 47 47h307c23 0 40 -10 40 -38z" />
    <glyph glyph-name="eight" unicode="8" 
d="M494 175c0 -119 -93 -190 -204 -190c-113 0 -204 71 -204 192c0 63 31 112 81 142c-46 31 -77 77 -77 139c0 115 94 181 197 181c98 0 199 -65 199 -176c0 -66 -23 -112 -73 -143c52 -31 81 -82 81 -145zM382 459c0 53 -42 91 -95 91c-54 0 -93 -37 -93 -92
c0 -54 39 -92 94 -92c56 0 94 38 94 93zM388 175c0 57 -43 95 -98 95s-98 -39 -98 -96c0 -58 42 -96 98 -96c57 0 98 39 98 97z" />
    <glyph glyph-name="nine" unicode="9" 
d="M494 350c0 -191 -100 -365 -314 -365c-6 0 -14 -1 -21 -1c-28 1 -65 8 -65 45c0 31 24 39 57 45c71 11 188 8 226 180c-28 -22 -62 -36 -100 -36c-115 0 -191 102 -191 208c0 110 70 213 191 213c158 0 217 -163 217 -289zM375 424c0 62 -34 120 -95 120
c-57 0 -86 -54 -86 -113c0 -61 31 -116 90 -116c57 0 91 51 91 109z" />
    <glyph glyph-name="colon" unicode=":" horiz-adv-x="351" 
d="M281 365c0 -63 -49 -97 -105 -97s-106 34 -106 97c0 62 49 97 106 97c55 0 105 -33 105 -97zM281 89c0 -63 -49 -97 -105 -97s-106 34 -106 97s49 97 106 97c55 0 105 -32 105 -97z" />
    <glyph glyph-name="semicolon" unicode=";" horiz-adv-x="353" 
d="M283 365c0 -64 -51 -97 -107 -97s-105 33 -105 97c0 62 49 97 105 97s107 -34 107 -97zM275 126l-127 -265c-11 -22 -24 -28 -42 -22l-38 14c-27 9 -27 29 -23 45l60 236c6 25 16 36 44 36h102c32 0 30 -32 24 -44z" />
    <glyph glyph-name="less" unicode="&#x3c;" horiz-adv-x="567" 
d="M493 504c20 -40 -12 -61 -36 -74l-265 -142l265 -143c25 -13 52 -36 35 -73c-16 -35 -48 -24 -72 -11l-313 169c-24 13 -47 32 -47 58s20 42 47 57l313 169c26 15 55 24 73 -10z" />
    <glyph glyph-name="equal" unicode="=" horiz-adv-x="575" 
d="M525 386c0 -24 -11 -48 -41 -48h-393c-31 0 -41 24 -41 48s10 49 41 49h393c30 0 41 -26 41 -49zM525 230c0 -24 -11 -48 -41 -48h-393c-31 0 -41 24 -41 48s10 49 41 49h393c30 0 41 -26 41 -49z" />
    <glyph glyph-name="greater" unicode="&#x3e;" horiz-adv-x="567" 
d="M507 288c0 -26 -24 -45 -48 -58l-312 -169c-25 -13 -57 -24 -72 11c-17 37 9 60 35 73l264 143l-264 142c-25 13 -56 34 -36 74c17 34 47 25 73 10l312 -169c28 -15 48 -31 48 -57z" />
    <glyph glyph-name="question" unicode="?" horiz-adv-x="484" 
d="M424 433c0 -105 -88 -151 -159 -180v-16c0 -29 -20 -49 -46 -49s-45 17 -45 48v38c0 31 4 41 31 53l47 22c55 25 76 56 76 85c0 58 -50 83 -99 84c-39 0 -77 -14 -91 -38c-22 -24 -47 -17 -67 4c-21 23 -9 50 3 66c43 55 122 62 175 62c95 0 175 -67 175 -179zM312 77
c0 -61 -51 -85 -93 -85c-43 0 -93 25 -93 85c0 59 50 83 93 83c42 0 93 -23 93 -83z" />
    <glyph glyph-name="at" unicode="@" horiz-adv-x="531" 
d="M441 198c0 -26 -18 -47 -42 -47c-13 0 -25 7 -32 17c-18 -7 -35 -11 -56 -11c-76 0 -107 75 -107 143c0 115 65 158 153 162c0 47 -6 119 -62 119c-118 0 -152 -139 -152 -257c0 -130 53 -288 177 -288c27 0 51 18 78 18c21 0 32 -21 32 -38c0 -49 -82 -68 -115 -68
c-187 0 -255 205 -255 365c0 147 42 355 239 355c125 0 142 -134 142 -241v-229zM357 251v129c-48 -2 -72 -16 -72 -75c0 -37 12 -62 43 -62c8 0 19 4 29 8z" />
    <glyph glyph-name="A" unicode="A" horiz-adv-x="547" 
d="M516 74c12 -31 24 -63 -18 -81c-39 -17 -58 15 -69 45l-47 127h-216l-47 -127c-11 -30 -32 -61 -70 -45c-41 18 -30 48 -18 81l178 474c10 28 32 49 65 49c31 0 54 -20 64 -49zM348 255l-75 204l-74 -204h149z" />
    <glyph glyph-name="B" unicode="B" horiz-adv-x="564" 
d="M524 173c0 -62 -33 -115 -87 -147c-34 -20 -67 -27 -136 -27h-174c-32 0 -47 22 -47 52v476c0 30 15 52 47 52h145c136 0 216 -54 216 -164c0 -45 -16 -80 -47 -106c56 -27 83 -71 83 -136zM380 412c0 43 -30 72 -97 72h-101v-143h82c86 0 116 26 116 71zM415 174
c0 56 -27 81 -140 81h-93v-161h88c116 0 145 26 145 80z" />
    <glyph glyph-name="C" unicode="C" horiz-adv-x="596" 
d="M532 71c-43 -53 -152 -86 -213 -86c-175 0 -279 141 -279 304c0 162 106 306 281 306c60 0 149 -30 192 -79c16 -18 21 -49 0 -70c-21 -22 -46 -14 -67 0c-41 25 -72 58 -125 58c-117 0 -168 -98 -168 -210c0 -111 54 -208 169 -208c50 0 93 20 136 50c25 17 47 29 74 5
c23 -21 14 -53 0 -70z" />
    <glyph glyph-name="D" unicode="D" horiz-adv-x="576" 
d="M536 289c0 -197 -117 -289 -305 -290h-104c-32 0 -47 22 -47 52v476c0 30 15 52 47 52h142c175 0 267 -128 267 -290zM431 289c0 144 -67 195 -210 195h-40v-390h44c141 0 206 52 206 195z" />
    <glyph glyph-name="E" unicode="E" horiz-adv-x="535" 
d="M495 46c0 -32 -20 -46 -52 -46h-317c-33 0 -46 22 -46 51v476c0 29 13 52 46 52h317c32 0 52 -16 52 -48s-20 -47 -52 -47h-261v-129h129c29 0 51 -8 51 -42c0 -36 -23 -42 -51 -42h-129v-177h261c32 0 52 -16 52 -48z" />
    <glyph glyph-name="F" unicode="F" horiz-adv-x="512" 
d="M462 531c0 -27 -22 -47 -47 -47h-233v-129h140c23 0 41 -19 41 -42c0 -24 -19 -42 -42 -42h-139v-212c0 -37 0 -71 -51 -71c-49 0 -51 31 -51 71v469c0 29 15 51 47 51h288c27 0 47 -22 47 -48z" />
    <glyph glyph-name="G" unicode="G" horiz-adv-x="620" 
d="M550 76c0 -21 0 -38 -21 -50c-50 -29 -133 -40 -187 -40c-180 0 -292 125 -292 300c0 165 103 308 281 308c58 0 155 -30 197 -80c16 -19 21 -47 0 -69c-33 -36 -76 6 -104 24c-28 19 -58 34 -93 34c-117 0 -168 -96 -168 -208c0 -121 62 -216 187 -216
c33 0 69 10 101 24v87h-100c-29 0 -44 19 -44 45c0 32 14 45 45 45h160c31 0 38 -28 38 -45v-159z" />
    <glyph glyph-name="H" unicode="H" horiz-adv-x="556" 
d="M476 59c0 -37 1 -71 -50 -71c-52 0 -51 33 -51 71v199h-194v-199c0 -37 1 -71 -50 -71c-50 0 -51 31 -51 71v466c0 36 -2 70 49 70c53 0 52 -33 52 -70v-174h194v174c0 36 -2 70 49 70c53 0 52 -33 52 -70v-466z" />
    <glyph glyph-name="I" unicode="I" horiz-adv-x="562" 
d="M492 47c0 -45 -37 -47 -70 -47h-303c-29 0 -49 16 -49 47c0 47 38 47 70 47h91v390h-91c-33 0 -70 1 -70 47c0 33 19 48 49 48h325c29 0 48 -16 48 -48c0 -46 -37 -47 -70 -47h-90v-390h90c32 0 70 -1 70 -47z" />
    <glyph glyph-name="J" unicode="J" horiz-adv-x="519" 
d="M449 201c0 -142 -56 -215 -205 -215c-147 0 -204 71 -204 214c0 35 4 62 47 62c42 0 48 -30 48 -66c0 -77 29 -122 105 -122c87 0 107 52 107 138v332c0 29 23 52 52 52c28 0 50 -24 50 -52v-343z" />
    <glyph glyph-name="K" unicode="K" horiz-adv-x="534" 
d="M487 62c15 -30 2 -56 -21 -67c-21 -12 -51 -9 -67 20l-79 149c-20 38 -53 85 -97 95l-42 -43v-158c0 -36 1 -70 -50 -70c-50 0 -51 31 -51 70v467c0 36 -2 70 49 70c53 0 52 -33 52 -70v-181l233 237c22 22 48 16 63 -1c15 -15 19 -39 1 -58l-184 -191
c86 -40 154 -190 193 -269z" />
    <glyph glyph-name="L" unicode="L" horiz-adv-x="531" 
d="M496 46c0 -32 -20 -46 -52 -46h-317c-32 0 -47 22 -47 51v474c0 36 0 70 50 70c53 0 52 -33 52 -70v-431h262c32 0 52 -16 52 -48z" />
    <glyph glyph-name="M" unicode="M" horiz-adv-x="608" 
d="M538 36c1 -27 -22 -48 -48 -48c-27 0 -47 22 -48 48l-13 377l-67 -206c-10 -31 -24 -44 -58 -44c-32 0 -53 13 -63 44l-66 204l-9 -376c-1 -25 -22 -47 -48 -47c-27 0 -49 22 -48 49l16 511c2 39 35 47 65 47c29 0 56 -9 67 -42l87 -266l87 266c11 34 35 42 65 42
c31 0 66 -7 67 -47z" />
    <glyph glyph-name="N" unicode="N" horiz-adv-x="582" 
d="M502 31c0 -32 -25 -43 -48 -43c-33 0 -47 16 -59 39l-221 396v-365c0 -34 5 -70 -46 -70c-52 0 -48 35 -48 70v492c0 40 35 48 58 48c33 0 46 -7 63 -37l207 -374v336c0 35 -5 72 46 72c52 0 48 -35 48 -71v-493z" />
    <glyph glyph-name="O" unicode="O" horiz-adv-x="611" 
d="M571 291c0 -156 -92 -306 -267 -306c-172 0 -264 152 -264 306c0 156 90 304 265 304s266 -149 266 -304zM458 291c0 106 -41 210 -153 210c-114 0 -153 -103 -153 -210s39 -211 152 -211s154 104 154 211z" />
    <glyph glyph-name="P" unicode="P" horiz-adv-x="533" 
d="M493 393c0 -125 -89 -185 -245 -185h-66v-150c0 -36 0 -70 -51 -70c-50 0 -51 31 -51 70v470c0 30 15 52 47 52h121c155 0 245 -62 245 -187zM385 391c0 60 -38 93 -131 93h-72v-187h72c94 0 131 33 131 94z" />
    <glyph glyph-name="Q" unicode="Q" horiz-adv-x="649" 
d="M605 4c-33 -38 -57 -21 -83 5l-44 44c-47 -43 -107 -65 -176 -65c-185 0 -262 138 -262 300c0 152 94 307 264 307c169 0 266 -156 266 -307c0 -58 -11 -108 -31 -152l48 -48c26 -26 49 -47 18 -84zM457 288c0 105 -42 213 -153 213c-110 0 -153 -108 -153 -213
s43 -209 153 -209c43 0 78 15 105 47l-79 75c-26 25 -50 48 -15 84c36 38 60 15 87 -12l50 -50c4 20 5 41 5 65z" />
    <glyph glyph-name="R" unicode="R" horiz-adv-x="556" 
d="M495 86c21 -31 37 -59 -5 -87c-44 -28 -62 -1 -82 31l-99 149c-25 38 -41 59 -81 59h-47v-179c0 -37 1 -71 -50 -71c-50 0 -51 31 -51 71v468c0 30 15 52 47 52h120c51 0 119 -1 167 -32c48 -32 73 -86 73 -141c0 -74 -45 -126 -108 -150c8 -8 16 -16 22 -26zM379 408
c0 61 -50 79 -114 79h-84v-158h82c64 0 116 17 116 79z" />
    <glyph glyph-name="S" unicode="S" horiz-adv-x="562" 
d="M512 170c0 -134 -116 -186 -228 -186s-216 55 -233 172c-5 34 16 57 51 57c81 0 20 -138 185 -138c60 0 121 28 121 86c0 46 -30 67 -78 74c-111 15 -265 24 -265 178c0 122 119 182 219 182c71 0 146 -21 188 -84c17 -25 36 -83 3 -107c-37 -28 -73 0 -85 31
c-19 51 -54 69 -109 69c-59 0 -113 -30 -113 -87c0 -46 44 -63 95 -69c69 -10 149 -11 203 -63c31 -29 46 -68 46 -115z" />
    <glyph glyph-name="T" unicode="T" horiz-adv-x="562" 
d="M532 532c0 -32 -19 -48 -51 -48h-150v-425c0 -36 2 -70 -49 -70s-51 30 -51 70v425h-150c-32 0 -51 16 -51 48s19 47 51 47h400c32 0 51 -15 51 -47z" />
    <glyph glyph-name="U" unicode="U" horiz-adv-x="590" 
d="M510 208c0 -134 -85 -222 -215 -222s-215 88 -215 222v317c0 36 -2 70 49 70c53 0 52 -33 52 -70v-290c0 -88 19 -155 114 -155s114 67 114 155v290c0 36 -1 70 50 70c52 0 51 -34 51 -70v-317z" />
    <glyph glyph-name="V" unicode="V" horiz-adv-x="611" 
d="M559 507l-177 -454c-13 -34 -35 -57 -63 -57h-26c-30 0 -50 24 -63 57l-178 454c-13 34 -26 66 23 83c48 18 59 -14 72 -48l159 -409l167 431c11 29 31 38 63 26c48 -17 36 -49 23 -83z" />
    <glyph glyph-name="W" unicode="W" horiz-adv-x="618" 
d="M565 518l-72 -481c-4 -25 -12 -37 -34 -37h-35c-22 0 -33 8 -39 29l-76 271l-75 -271c-6 -21 -17 -29 -39 -29h-35c-23 0 -30 12 -34 37l-72 481c-6 36 -13 68 38 76c52 8 54 -26 59 -63l46 -330l62 214c7 25 16 33 42 33h17c27 0 35 -8 42 -33l62 -214l48 354
c4 31 22 44 56 39c51 -8 44 -40 39 -76z" />
    <glyph glyph-name="X" unicode="X" horiz-adv-x="576" 
d="M503 1c-43 -30 -61 -3 -83 27l-132 181l-146 -200c-19 -26 -41 -28 -68 -9c-41 30 -22 55 1 87l151 208l-147 201c-21 30 -42 56 0 87c42 30 60 3 82 -27l127 -175l142 194c19 25 40 28 68 8c42 -31 21 -57 -1 -87l-147 -202l151 -206c21 -29 43 -57 2 -87z" />
    <glyph glyph-name="Y" unicode="Y" horiz-adv-x="536" 
d="M472 499l-154 -280v-160c0 -37 2 -71 -50 -71c-50 0 -51 31 -51 71v161l-164 300c-14 27 -11 47 18 64c47 28 62 1 81 -34l116 -223l128 243c16 31 39 33 69 14c42 -26 24 -54 7 -85z" />
    <glyph glyph-name="Z" unicode="Z" horiz-adv-x="510" 
d="M460 47c0 -32 -19 -47 -51 -47h-300c-33 0 -59 21 -59 56c0 19 9 40 25 63l251 365h-224c-32 0 -51 15 -51 47s19 48 51 48h288c41 0 70 -17 70 -55c0 -19 -8 -37 -20 -54l-258 -376h227c31 0 51 -14 51 -47z" />
    <glyph glyph-name="bracketleft" unicode="[" horiz-adv-x="367" 
d="M287 -138c0 -23 -14 -44 -42 -44h-118c-25 0 -47 17 -47 45v731c0 28 22 45 47 45h118c26 0 42 -19 42 -43s-18 -43 -42 -43h-60v-649h60c23 0 42 -17 42 -42z" />
    <glyph glyph-name="backslash" unicode="\" horiz-adv-x="614" 
d="M511 -8c0 -14 -6 -26 -17 -35c-12 -9 -25 -14 -40 -14c-10 0 -19 4 -26 11c-8 8 -16 21 -25 40l-286 613c-5 12 -9 21 -11 27c-2 7 -3 13 -3 19c0 14 6 26 18 35c11 9 25 14 39 14c10 0 19 -4 27 -11c7 -8 15 -21 24 -41l286 -612l1 -2c10 -19 13 -34 13 -44z" />
    <glyph glyph-name="bracketright" unicode="]" horiz-adv-x="367" 
d="M287 -137c0 -29 -21 -45 -46 -45h-119c-28 0 -42 21 -42 44c0 25 19 42 43 42h60v649h-60c-25 0 -43 18 -43 43c0 24 16 43 42 43h119c25 0 46 -17 46 -45v-731z" />
    <glyph glyph-name="asciicircum" unicode="^" horiz-adv-x="518" 
d="M430 496c11 -14 13 -41 -4 -54c-10 -10 -31 -19 -48 -2l-119 119l-119 -119c-17 -17 -38 -8 -48 2c-17 13 -14 40 -3 54l128 163c11 14 32 16 42 16s32 -2 43 -16z" />
    <glyph glyph-name="underscore" unicode="_" horiz-adv-x="644" 
d="M574 -226c0 -34 -21 -45 -51 -45h-402c-30 0 -51 11 -51 45c0 33 21 44 51 44h402c30 0 51 -11 51 -44z" />
    <glyph glyph-name="grave" unicode="`" horiz-adv-x="622" 
d="M427 542l-24 -48l-256 87c-27 9 -23 32 -19 42l21 42c5 10 20 27 45 13z" />
    <glyph glyph-name="a" unicode="a" horiz-adv-x="539" 
d="M469 58c0 -35 2 -69 -48 -69c-34 0 -50 15 -51 46v5c-46 -33 -99 -50 -154 -50c-97 0 -166 59 -166 150c0 108 89 165 226 165c30 0 61 -2 93 -10c-4 52 -30 74 -88 74c-52 0 -100 -38 -137 -38c-29 0 -45 25 -45 52c0 40 79 79 193 79c116 0 177 -63 177 -176v-228z
M370 167v39c-28 9 -55 12 -81 12c-94 0 -138 -34 -138 -74c0 -30 28 -57 76 -57c36 0 70 10 100 28c32 20 43 38 43 52z" />
    <glyph glyph-name="b" unicode="b" horiz-adv-x="577" 
d="M532 221c0 -130 -101 -228 -230 -228c-56 0 -99 14 -133 49c-2 -33 -10 -54 -49 -54c-50 0 -50 35 -50 71v511c0 35 -3 69 48 69c52 0 49 -32 49 -69v-165c39 32 87 45 137 45c130 0 228 -99 228 -229zM427 224c0 77 -54 132 -131 132c-78 0 -131 -54 -131 -132
s53 -132 131 -132s131 53 131 132z" />
    <glyph glyph-name="c" unicode="c" horiz-adv-x="568" 
d="M523 114c0 -76 -169 -125 -228 -125c-134 0 -245 96 -245 236c0 138 109 237 244 237c53 0 102 -15 148 -38c50 -26 79 -56 79 -88c0 -10 -1 -23 -12 -34c-27 -27 -66 -3 -88 15c-35 28 -72 45 -116 45c-84 0 -147 -52 -147 -136c0 -83 55 -141 138 -141
c51 0 86 17 125 48c21 16 65 41 90 14c8 -9 12 -20 12 -33z" />
    <glyph glyph-name="d" unicode="d" horiz-adv-x="578" 
d="M508 57c0 -36 2 -69 -49 -69c-39 0 -49 20 -50 53c-40 -36 -96 -52 -147 -52c-130 0 -217 103 -217 228c0 132 97 234 231 234c51 0 97 -14 135 -46v165c0 35 -4 69 47 69c52 0 50 -32 50 -69v-513zM412 223c0 78 -53 132 -130 132c-80 0 -130 -56 -130 -137
c0 -75 54 -129 130 -129c78 0 130 57 130 134z" />
    <glyph glyph-name="e" unicode="e" horiz-adv-x="585" 
d="M540 248c0 -59 -41 -57 -83 -57h-298c10 -73 63 -109 141 -109c55 0 104 27 154 47c33 13 85 17 85 -34c0 -22 -7 -34 -24 -45c-61 -41 -153 -61 -222 -61c-140 0 -243 87 -243 233c0 150 110 242 253 242c121 0 237 -82 237 -216zM426 279c-14 57 -61 94 -123 94
c-67 0 -118 -34 -139 -94h262z" />
    <glyph glyph-name="f" unicode="f" horiz-adv-x="502" 
d="M487 580c0 -32 -28 -47 -51 -47c-29 0 -61 11 -94 11c-71 0 -81 -40 -82 -106h148c26 0 52 -11 52 -46c0 -33 -25 -48 -52 -48h-144v-286c0 -35 2 -69 -48 -69s-52 30 -52 69v286h-61c-26 0 -53 12 -53 48c0 35 25 46 51 46h59v31c0 142 97 171 213 171
c37 0 114 -7 114 -60z" />
    <glyph glyph-name="g" unicode="g" horiz-adv-x="549" 
d="M479 26c0 -31 0 -63 -8 -93c-27 -101 -131 -127 -215 -127c-39 0 -115 2 -115 57c0 30 28 49 54 49s51 -6 77 -6c106 0 110 61 110 120v42c-35 -30 -76 -42 -125 -42c-125 0 -212 93 -212 215c0 123 89 217 214 217c46 0 87 -16 123 -39c1 29 16 42 47 42
c51 0 50 -32 50 -69v-366zM388 243c0 71 -52 119 -122 119c-71 0 -122 -47 -122 -119c0 -71 51 -119 122 -119c70 0 122 48 122 119z" />
    <glyph glyph-name="h" unicode="h" horiz-adv-x="509" 
d="M449 58c0 -35 3 -69 -48 -69s-49 33 -49 69v211c0 58 -24 95 -81 95c-54 0 -104 -41 -104 -95v-210c0 -35 3 -70 -47 -70c-51 0 -50 30 -50 69v511c0 36 -3 70 48 70c52 0 49 -32 49 -69v-153c34 27 73 45 120 45c109 0 162 -77 162 -176v-228z" />
    <glyph glyph-name="i" unicode="i" horiz-adv-x="282" 
d="M202 596c0 -46 -2 -72 -61 -72c-60 0 -61 26 -61 72c0 41 1 76 61 76c59 0 61 -35 61 -76zM191 57c0 -36 2 -69 -49 -69c-50 0 -49 31 -49 69v335c0 35 -3 70 48 70s50 -33 50 -70v-335z" />
    <glyph glyph-name="j" unicode="j" horiz-adv-x="289" 
d="M219 596c0 -46 -1 -72 -61 -72c-58 0 -61 26 -61 72c0 41 3 75 61 75c60 0 61 -34 61 -75zM209 43c0 -43 -2 -108 -33 -148c-46 -58 -125 -74 -192 -74c-33 0 -114 8 -114 57c0 30 28 49 53 49c27 0 52 -6 78 -6c86 0 110 36 110 123v349c0 35 -3 69 47 69
c52 0 51 -33 51 -69v-350z" />
    <glyph glyph-name="k" unicode="k" horiz-adv-x="481" 
d="M446 5c-31 -32 -53 -14 -82 17l-170 185l-27 -24v-126c0 -35 3 -69 -47 -69c-51 0 -50 31 -50 69v513c0 35 -3 69 48 69c52 0 49 -33 49 -69v-274l182 151c19 15 42 25 62 2c30 -36 2 -58 -23 -79l-124 -104l165 -178c28 -30 45 -55 17 -83z" />
    <glyph glyph-name="l" unicode="l" horiz-adv-x="277" 
d="M187 57c0 -35 3 -69 -47 -69c-51 0 -50 31 -50 69v512c0 36 -3 70 48 70c52 0 49 -32 49 -69v-513z" />
    <glyph glyph-name="m" unicode="m" horiz-adv-x="624" 
d="M554 57c0 -35 3 -69 -48 -69c-52 0 -48 35 -48 71v211c0 28 5 95 -38 95s-60 -47 -60 -95v-213c0 -35 3 -69 -48 -69c-52 0 -48 33 -48 69v213c0 33 6 95 -44 95c-23 0 -42 -15 -54 -37v-271c0 -35 3 -69 -47 -69c-51 0 -49 31 -49 69v334c0 36 -3 71 48 71
c27 0 39 -10 45 -24c22 17 47 26 78 26c38 0 68 -15 86 -44c26 28 58 44 100 44c113 0 127 -96 127 -177v-230z" />
    <glyph glyph-name="n" unicode="n" horiz-adv-x="509" 
d="M449 58c0 -35 3 -70 -48 -70s-49 33 -49 69v213c0 58 -24 95 -81 95c-54 0 -104 -41 -104 -95v-213c0 -35 3 -69 -47 -69c-52 0 -50 33 -50 69v335c0 35 -3 70 48 70c31 0 46 -16 49 -45c34 27 73 45 120 45c109 0 162 -76 162 -175v-229z" />
    <glyph glyph-name="o" unicode="o" horiz-adv-x="597" 
d="M552 225c0 -149 -114 -237 -253 -237s-254 89 -254 237c0 149 115 237 254 237s253 -89 253 -237zM445 222c0 86 -60 146 -146 146s-146 -60 -146 -146s60 -145 146 -145c85 0 146 60 146 145z" />
    <glyph glyph-name="p" unicode="p" horiz-adv-x="576" 
d="M531 218c0 -129 -91 -230 -221 -230c-53 0 -103 14 -144 47v-173c0 -35 3 -69 -47 -69c-52 0 -49 33 -49 69v531c0 36 -3 70 48 70c33 0 48 -14 49 -45c38 30 85 46 136 46c135 0 228 -115 228 -246zM426 223c0 77 -57 140 -131 140c-76 0 -130 -62 -130 -140
c0 -79 54 -140 130 -140c75 0 131 62 131 140z" />
    <glyph glyph-name="q" unicode="q" horiz-adv-x="576" 
d="M506 -138c0 -36 4 -69 -48 -69c-51 0 -48 34 -48 69v173c-40 -33 -91 -47 -143 -47c-130 0 -222 101 -222 230c0 131 93 246 228 246c51 0 98 -16 137 -47c1 31 16 46 49 46c51 0 47 -36 47 -72v-529zM412 223c0 78 -55 140 -130 140s-131 -63 -131 -140
c0 -78 56 -140 131 -140s130 61 130 140z" />
    <glyph glyph-name="r" unicode="r" horiz-adv-x="479" 
d="M449 389c0 -26 -24 -57 -54 -57c-28 0 -52 28 -80 28c-55 0 -109 -51 -149 -97v-206c0 -35 2 -69 -47 -69c-50 0 -49 31 -49 69v335c0 35 -2 70 48 70s48 -33 48 -69v-14c47 48 105 83 178 83c42 0 105 -20 105 -73z" />
    <glyph glyph-name="s" unicode="s" horiz-adv-x="508" 
d="M458 136c0 -95 -91 -148 -202 -148c-131 0 -206 64 -206 140c0 16 1 48 42 48c38 1 46 -24 53 -48c7 -26 33 -53 111 -53c81 0 106 35 106 56c0 46 -57 51 -121 59c-82 11 -177 28 -177 144c0 91 88 130 181 130c80 0 184 -22 189 -122c1 -29 -8 -52 -39 -53
c-34 -1 -46 19 -52 42s-27 45 -97 45c-68 0 -86 -23 -86 -44c0 -42 74 -47 105 -51c80 -14 193 -36 193 -145z" />
    <glyph glyph-name="t" unicode="t" horiz-adv-x="581" 
d="M551 83c0 -33 -32 -51 -59 -61c-47 -19 -100 -35 -153 -35c-57 0 -123 15 -156 75c-21 38 -19 89 -19 131v153h-63c-27 0 -51 11 -51 46c0 48 44 47 77 47h37v81c0 35 -2 77 49 77c50 0 49 -43 49 -78v-80h167c24 0 57 -6 57 -47c0 -36 -28 -46 -52 -46h-172v-153
c0 -71 5 -113 73 -113c63 0 128 49 171 49c26 0 45 -21 45 -46z" />
    <glyph glyph-name="u" unicode="u" horiz-adv-x="529" 
d="M459 57c0 -35 2 -69 -48 -69c-33 0 -47 17 -49 46c-38 -25 -76 -43 -127 -43c-114 0 -165 65 -165 174v227c0 36 -2 70 49 70s49 -33 49 -70v-210c0 -66 23 -97 87 -97c58 0 106 39 106 97v210c0 36 -2 70 49 70c52 0 49 -33 49 -70v-335z" />
    <glyph glyph-name="v" unicode="v" horiz-adv-x="525" 
d="M487 392l-158 -359c-17 -38 -33 -48 -66 -48c-32 0 -50 10 -67 48l-159 359c-12 28 -11 49 22 63c48 22 57 -11 72 -44l131 -300l132 300c15 33 24 66 72 45c32 -15 34 -36 21 -64z" />
    <glyph glyph-name="w" unicode="w" horiz-adv-x="616" 
d="M572 378l-108 -344c-11 -34 -25 -49 -56 -49c-29 0 -47 12 -55 41l-45 167l-46 -167c-7 -29 -25 -41 -54 -41c-31 0 -45 15 -56 49l-108 344c-11 35 -21 66 27 80c50 15 57 -16 67 -51l74 -259l45 153c8 27 21 41 52 41c32 0 42 -15 50 -41l45 -153l74 257
c10 35 17 68 67 53c49 -14 38 -46 27 -80z" />
    <glyph glyph-name="x" unicode="x" horiz-adv-x="565" 
d="M503 445c36 -36 6 -55 -19 -80l-139 -139l140 -141c26 -26 54 -44 18 -80c-35 -35 -52 -10 -79 17l-142 141l-141 -141c-27 -27 -44 -52 -79 -17c-36 36 -8 54 18 80l140 141l-139 139c-25 25 -55 44 -19 80s55 9 81 -17l139 -140l140 140c26 26 45 53 81 17z" />
    <glyph glyph-name="y" unicode="y" horiz-adv-x="550" 
d="M501 368l-271 -534c-14 -27 -31 -39 -63 -24c-46 22 -28 51 -11 84l75 149l-165 325c-17 33 -30 64 14 86c45 22 61 -5 77 -39l130 -264l141 281c14 27 33 38 64 23c46 -23 25 -56 9 -87z" />
    <glyph glyph-name="z" unicode="z" horiz-adv-x="511" 
d="M461 46c0 -31 -19 -47 -51 -47h-294c-39 0 -66 18 -66 56c0 21 8 36 37 65l238 240h-214c-31 0 -52 13 -52 45s19 47 51 47h272c45 0 79 -18 79 -60c0 -24 -21 -49 -47 -75l-223 -225h218c31 0 52 -13 52 -46z" />
    <glyph glyph-name="braceleft" unicode="{" horiz-adv-x="491" 
d="M411 -135c0 -36 -30 -47 -54 -47c-53 0 -95 14 -119 44c-25 29 -35 82 -35 153v65c0 68 -10 83 -78 94c-28 5 -45 19 -45 51c0 85 123 26 123 156v54c0 117 22 198 155 198c26 0 53 -14 53 -48c0 -30 -21 -46 -52 -51c-49 -6 -52 -23 -52 -76v-68c0 -62 -2 -133 -59 -165
c57 -32 59 -92 59 -154v-80c0 -53 4 -68 52 -75c31 -4 52 -20 52 -51z" />
    <glyph glyph-name="bar" unicode="|" horiz-adv-x="323" 
d="M203 -196c0 -24 -11 -49 -42 -49c-30 0 -41 26 -41 49v921c0 21 11 48 41 48c31 0 42 -25 42 -48v-921z" />
    <glyph glyph-name="braceright" unicode="}" horiz-adv-x="491" 
d="M411 225c0 -32 -16 -46 -45 -51c-67 -11 -77 -26 -77 -94v-65c0 -71 -11 -124 -35 -153c-25 -30 -66 -44 -120 -44c-24 0 -54 11 -54 47c0 31 21 47 52 51c48 7 52 22 52 75v80c0 62 2 122 60 154c-58 32 -60 103 -60 165v68c0 53 -3 70 -52 76c-31 5 -52 21 -52 51
c0 34 28 48 53 48c133 0 156 -81 156 -198v-54c0 -130 122 -71 122 -156z" />
    <glyph glyph-name="asciitilde" unicode="~" horiz-adv-x="629" 
d="M502 265c-138 -80 -228 56 -339 -2c-21 -11 -54 -32 -74 -5c-26 35 11 74 38 90c85 51 152 16 234 -5c49 -13 73 -9 119 15c77 41 98 -48 22 -93z" />
    <glyph glyph-name="Adieresis" unicode="&#xc4;" horiz-adv-x="547" 
d="M516 74c12 -31 24 -63 -18 -81c-39 -17 -58 15 -69 45l-47 127h-216l-47 -127c-11 -30 -32 -61 -70 -45c-41 18 -30 48 -18 81l178 474c10 28 32 49 65 49c31 0 54 -20 64 -49zM348 255l-75 204l-74 -204h149zM465 728c0 -41 -29 -69 -70 -69c-39 0 -69 29 -69 69
c0 37 34 68 69 68c39 0 70 -29 70 -68zM232 728c0 -40 -27 -69 -69 -69c-38 0 -70 30 -70 69c0 37 34 68 70 68c38 0 69 -30 69 -68z" />
    <glyph glyph-name="Aring" unicode="&#xc5;" horiz-adv-x="547" 
d="M406 744c0 -74 -58 -132 -132 -132s-131 59 -131 132c0 74 58 131 132 131c72 0 131 -58 131 -131zM516 74c12 -31 24 -63 -18 -81c-39 -17 -58 15 -69 45l-47 127h-216l-47 -127c-11 -30 -32 -61 -70 -45c-41 18 -30 48 -18 81l178 474c10 28 32 49 65 49
c31 0 54 -20 64 -49zM338 743c0 37 -28 65 -63 65c-36 0 -63 -28 -63 -65c0 -36 27 -65 63 -65c35 0 63 29 63 65zM348 255l-75 204l-74 -204h149z" />
    <glyph glyph-name="Ccedilla" unicode="&#xc7;" horiz-adv-x="596" 
d="M532 72c-42 -52 -141 -84 -208 -86v-15c7 0 14 1 20 1c55 0 96 -36 96 -94c0 -75 -62 -98 -119 -98c-34 0 -67 5 -97 18c-46 18 -58 42 -52 59c6 15 27 24 52 18c29 -7 53 -21 84 -21c21 0 31 8 31 26c0 15 -12 24 -33 24c-5 0 -20 -2 -43 -9v96
c-141 26 -223 153 -223 298c0 163 106 306 281 306c60 0 149 -29 192 -79c16 -18 21 -49 0 -70c-34 -34 -74 6 -103 25c-27 18 -55 33 -89 33c-117 0 -168 -97 -168 -209s54 -208 169 -208c50 0 93 20 136 49c25 18 47 29 74 6c23 -21 14 -54 0 -70z" />
    <glyph glyph-name="Eacute" unicode="&#xc9;" horiz-adv-x="535" 
d="M495 46c0 -32 -20 -46 -52 -46h-317c-33 0 -46 22 -46 51v476c0 29 13 52 46 52h317c32 0 52 -16 52 -48s-20 -47 -52 -47h-261v-129h129c29 0 51 -8 51 -42c0 -36 -23 -42 -51 -42h-129v-177h261c32 0 52 -16 52 -48zM425 773c9 -17 10 -38 -17 -48l-251 -89l-24 47
l229 134c24 14 40 -2 46 -14z" />
    <glyph glyph-name="Ntilde" unicode="&#xd1;" horiz-adv-x="582" 
d="M502 31c0 -32 -25 -43 -48 -43c-33 0 -47 16 -59 39l-221 396v-365c0 -34 5 -70 -46 -70c-52 0 -48 35 -48 70v492c0 40 35 48 58 48c33 0 46 -7 63 -37l207 -374v336c0 35 -5 72 46 72c52 0 48 -35 48 -71v-493zM465 760c0 -22 -15 -40 -38 -57
c-63 -46 -127 -23 -192 -6c-27 7 -46 9 -63 -7c-13 -11 -43 -27 -61 -9c-16 33 8 62 32 79c60 45 128 23 191 6c28 -8 45 -9 63 7c14 12 41 27 59 10c5 -6 9 -13 9 -23z" />
    <glyph glyph-name="Odieresis" unicode="&#xd6;" horiz-adv-x="611" 
d="M571 291c0 -156 -92 -306 -267 -306c-172 0 -264 152 -264 306c0 156 90 304 265 304s266 -149 266 -304zM458 291c0 106 -41 210 -153 210c-114 0 -153 -103 -153 -210s39 -211 152 -211s154 104 154 211zM496 728c0 -41 -29 -69 -70 -69c-39 0 -69 29 -69 69
c0 37 34 68 69 68c39 0 70 -29 70 -68zM263 728c0 -40 -27 -69 -69 -69c-38 0 -70 30 -70 69c0 37 34 68 70 68c38 0 69 -30 69 -68z" />
    <glyph glyph-name="Udieresis" unicode="&#xdc;" horiz-adv-x="590" 
d="M510 208c0 -134 -85 -222 -215 -222s-215 88 -215 222v317c0 36 -2 70 49 70c53 0 52 -33 52 -70v-290c0 -88 19 -155 114 -155s114 67 114 155v290c0 36 -1 70 50 70c52 0 51 -34 51 -70v-317zM484 728c0 -41 -29 -69 -70 -69c-39 0 -69 29 -69 69c0 37 34 68 69 68
c39 0 70 -29 70 -68zM251 728c0 -40 -27 -69 -69 -69c-38 0 -70 30 -70 69c0 37 34 68 70 68c38 0 69 -30 69 -68z" />
    <glyph glyph-name="aacute" unicode="&#xe1;" horiz-adv-x="539" 
d="M469 58c0 -35 2 -69 -48 -69c-34 0 -50 15 -51 46v5c-46 -33 -99 -50 -154 -50c-97 0 -166 59 -166 150c0 108 89 165 226 165c30 0 61 -2 93 -10c-4 52 -30 74 -88 74c-52 0 -100 -38 -137 -38c-29 0 -45 25 -45 52c0 40 79 79 193 79c116 0 177 -63 177 -176v-228z
M370 167v39c-28 9 -55 12 -81 12c-94 0 -138 -34 -138 -74c0 -30 28 -57 76 -57c36 0 70 10 100 28c32 20 43 38 43 52zM431 641c9 -17 10 -38 -17 -48l-251 -89l-24 47l229 134c24 14 40 -2 46 -14z" />
    <glyph glyph-name="agrave" unicode="&#xe0;" horiz-adv-x="539" 
d="M469 58c0 -35 2 -69 -48 -69c-34 0 -50 15 -51 46v5c-46 -33 -99 -50 -154 -50c-97 0 -166 59 -166 150c0 108 89 165 226 165c30 0 61 -2 93 -10c-4 52 -30 74 -88 74c-52 0 -100 -38 -137 -38c-29 0 -45 25 -45 52c0 40 79 79 193 79c116 0 177 -63 177 -176v-228z
M370 167v39c-28 9 -55 12 -81 12c-94 0 -138 -34 -138 -74c0 -30 28 -57 76 -57c36 0 70 10 100 28c32 20 43 38 43 52zM430 552l-24 -48l-256 87c-27 9 -23 32 -19 42l21 42c5 10 20 27 45 13z" />
    <glyph glyph-name="acircumflex" unicode="&#xe2;" horiz-adv-x="539" 
d="M469 58c0 -35 2 -69 -48 -69c-34 0 -50 15 -51 46v5c-46 -33 -99 -50 -154 -50c-97 0 -166 59 -166 150c0 108 89 165 226 165c30 0 61 -2 93 -10c-4 52 -30 74 -88 74c-52 0 -100 -38 -137 -38c-29 0 -45 25 -45 52c0 40 79 79 193 79c116 0 177 -63 177 -176v-228z
M370 167v39c-28 9 -55 12 -81 12c-94 0 -138 -34 -138 -74c0 -30 28 -57 76 -57c36 0 70 10 100 28c32 20 43 38 43 52zM437 523c-13 -10 -24 -11 -37 -4l-125 66l-124 -65c-13 -11 -33 -1 -38 4c-9 8 -16 35 3 46l125 98c9 9 24 13 34 13c12 0 26 -6 34 -12l126 -99
c20 -12 9 -39 2 -47z" />
    <glyph glyph-name="adieresis" unicode="&#xe4;" horiz-adv-x="539" 
d="M469 58c0 -35 2 -69 -48 -69c-34 0 -50 15 -51 46v5c-46 -33 -99 -50 -154 -50c-97 0 -166 59 -166 150c0 108 89 165 226 165c30 0 61 -2 93 -10c-4 52 -30 74 -88 74c-52 0 -100 -38 -137 -38c-29 0 -45 25 -45 52c0 40 79 79 193 79c116 0 177 -63 177 -176v-228z
M370 167v39c-28 9 -55 12 -81 12c-94 0 -138 -34 -138 -74c0 -30 28 -57 76 -57c36 0 70 10 100 28c32 20 43 38 43 52zM465 596c0 -41 -29 -69 -70 -69c-39 0 -69 29 -69 69c0 37 34 68 69 68c39 0 70 -29 70 -68zM232 596c0 -40 -27 -69 -69 -69c-38 0 -70 30 -70 69
c0 37 34 68 70 68c38 0 69 -30 69 -68z" />
    <glyph glyph-name="atilde" unicode="&#xe3;" horiz-adv-x="539" 
d="M469 58c0 -35 2 -69 -48 -69c-34 0 -50 15 -51 46v5c-46 -33 -99 -50 -154 -50c-97 0 -166 59 -166 150c0 108 89 165 226 165c30 0 61 -2 93 -10c-4 52 -30 74 -88 74c-52 0 -100 -38 -137 -38c-29 0 -45 25 -45 52c0 40 79 79 193 79c116 0 177 -63 177 -176v-228z
M370 167v39c-28 9 -55 12 -81 12c-94 0 -138 -34 -138 -74c0 -30 28 -57 76 -57c36 0 70 10 100 28c32 20 43 38 43 52zM456 628c0 -22 -15 -40 -38 -57c-63 -46 -127 -23 -192 -6c-27 7 -46 9 -63 -7c-13 -11 -43 -27 -61 -9c-16 33 8 62 32 79c60 45 128 23 191 6
c28 -8 45 -9 63 7c14 12 41 27 59 10c5 -6 9 -13 9 -23z" />
    <glyph glyph-name="aring" unicode="&#xe5;" horiz-adv-x="539" 
d="M408 627c0 -74 -57 -132 -132 -132c-73 0 -131 59 -131 132c0 74 59 132 132 132s131 -59 131 -132zM469 58c0 -35 2 -69 -48 -69c-34 0 -50 15 -51 46v5c-46 -33 -99 -50 -154 -50c-97 0 -166 59 -166 150c0 108 89 165 226 165c30 0 61 -2 93 -10c-4 52 -30 74 -88 74
c-52 0 -100 -38 -137 -38c-29 0 -45 25 -45 52c0 40 79 79 193 79c116 0 177 -63 177 -176v-228zM340 627c0 36 -27 65 -63 65c-35 0 -63 -29 -63 -65c0 -37 28 -65 63 -65c36 0 63 28 63 65zM370 167v39c-28 9 -55 12 -81 12c-94 0 -138 -34 -138 -74c0 -30 28 -57 76 -57
c36 0 70 10 100 28c32 20 43 38 43 52z" />
    <glyph glyph-name="ccedilla" unicode="&#xe7;" horiz-adv-x="568" 
d="M523 116c0 -33 -30 -61 -76 -86c-40 -22 -82 -35 -126 -38v-24c7 0 14 1 20 1c54 0 95 -36 95 -92c0 -74 -62 -97 -118 -97c-34 0 -65 6 -95 17c-36 14 -51 32 -51 48c0 25 23 31 35 31c25 0 62 -23 99 -23c20 0 29 7 29 26c0 14 -11 23 -31 23c-5 0 -20 -2 -42 -9v99
c-121 16 -212 107 -212 235c0 140 108 236 244 236c51 0 104 -15 148 -38c49 -25 79 -55 79 -87c0 -11 -3 -24 -12 -34c-29 -26 -64 -5 -89 15c-35 28 -72 45 -116 45c-85 0 -146 -51 -146 -136c0 -84 54 -141 138 -141c48 0 88 17 125 48c21 17 62 40 88 14
c10 -9 14 -20 14 -33z" />
    <glyph glyph-name="eacute" unicode="&#xe9;" horiz-adv-x="585" 
d="M540 248c0 -59 -41 -57 -83 -57h-298c10 -73 63 -109 141 -109c55 0 104 27 154 47c33 13 85 17 85 -34c0 -22 -7 -34 -24 -45c-61 -41 -153 -61 -222 -61c-140 0 -243 87 -243 233c0 150 110 242 253 242c121 0 237 -82 237 -216zM426 279c-14 57 -61 94 -123 94
c-67 0 -118 -34 -139 -94h262zM470 641c9 -17 10 -38 -17 -48l-251 -89l-24 47l229 134c24 14 40 -2 46 -14z" />
    <glyph glyph-name="egrave" unicode="&#xe8;" horiz-adv-x="585" 
d="M540 248c0 -59 -41 -57 -83 -57h-298c10 -73 63 -109 141 -109c55 0 104 27 154 47c33 13 85 17 85 -34c0 -22 -7 -34 -24 -45c-61 -41 -153 -61 -222 -61c-140 0 -243 87 -243 233c0 150 110 242 253 242c121 0 237 -82 237 -216zM426 279c-14 57 -61 94 -123 94
c-67 0 -118 -34 -139 -94h262zM460 552l-24 -48l-256 87c-27 9 -23 32 -19 42l21 42c5 10 20 27 45 13z" />
    <glyph glyph-name="ecircumflex" unicode="&#xea;" horiz-adv-x="585" 
d="M540 248c0 -59 -41 -57 -83 -57h-298c10 -73 63 -109 141 -109c55 0 104 27 154 47c33 13 85 17 85 -34c0 -22 -7 -34 -24 -45c-61 -41 -153 -61 -222 -61c-140 0 -243 87 -243 233c0 150 110 242 253 242c121 0 237 -82 237 -216zM426 279c-14 57 -61 94 -123 94
c-67 0 -118 -34 -139 -94h262zM455 523c-13 -10 -24 -11 -37 -4l-125 66l-124 -65c-13 -11 -33 -1 -38 4c-9 8 -16 35 3 46l125 98c9 9 24 13 34 13c12 0 26 -6 34 -12l126 -99c20 -12 9 -39 2 -47z" />
    <glyph glyph-name="edieresis" unicode="&#xeb;" horiz-adv-x="585" 
d="M540 248c0 -59 -41 -57 -83 -57h-298c10 -73 63 -109 141 -109c55 0 104 27 154 47c33 13 85 17 85 -34c0 -22 -7 -34 -24 -45c-61 -41 -153 -61 -222 -61c-140 0 -243 87 -243 233c0 150 110 242 253 242c121 0 237 -82 237 -216zM426 279c-14 57 -61 94 -123 94
c-67 0 -118 -34 -139 -94h262zM489 596c0 -41 -29 -69 -70 -69c-39 0 -69 29 -69 69c0 37 34 68 69 68c39 0 70 -29 70 -68zM256 596c0 -40 -27 -69 -69 -69c-38 0 -70 30 -70 69c0 37 34 68 70 68c38 0 69 -30 69 -68z" />
    <glyph glyph-name="iacute" unicode="&#xed;" horiz-adv-x="282" 
d="M285 671c13 -26 42 -59 0 -78l-251 -89l-24 47l229 134c24 14 40 -2 46 -14zM187 57c0 -35 0 -69 -49 -69c-50 0 -49 31 -49 69v335c0 35 -2 70 48 70s50 -34 50 -70v-335z" />
    <glyph glyph-name="igrave" unicode="&#xec;" horiz-adv-x="282" 
d="M271 551l-23 -47l-250 89c-44 16 -14 55 -2 78c7 13 23 28 46 14zM202 57c0 -36 0 -69 -50 -69c-49 0 -48 32 -48 69v335c0 35 -2 70 47 70c51 0 51 -33 51 -70v-335z" />
    <glyph glyph-name="icircumflex" unicode="&#xee;" horiz-adv-x="282" 
d="M304 511c-13 -13 -28 -11 -38 -5l-125 66l-125 -66c-13 -8 -27 -3 -37 4c-10 10 -16 36 3 47l125 98c7 6 22 13 34 13s25 -6 34 -13l125 -98c20 -13 10 -38 4 -46zM191 57c0 -36 0 -69 -50 -69c-49 0 -48 32 -48 69v335c0 35 -2 70 47 70c51 0 51 -33 51 -70v-335z" />
    <glyph glyph-name="idieresis" unicode="&#xef;" horiz-adv-x="282" 
d="M326 585c0 -41 -28 -69 -69 -69c-39 0 -68 31 -68 69c0 37 31 68 68 68c38 0 69 -29 69 -68zM93 585c0 -40 -26 -69 -68 -69c-40 0 -69 31 -69 69s32 68 69 68s68 -30 68 -68zM191 57c0 -36 0 -69 -50 -69c-49 0 -49 32 -49 69v335c0 35 -2 70 48 70c51 0 51 -33 51 -70
v-335z" />
    <glyph glyph-name="ntilde" unicode="&#xf1;" horiz-adv-x="509" 
d="M449 58c0 -35 3 -70 -48 -70s-49 33 -49 69v213c0 58 -24 95 -81 95c-54 0 -104 -41 -104 -95v-213c0 -35 3 -69 -47 -69c-52 0 -50 33 -50 69v335c0 35 -3 70 48 70c31 0 46 -16 49 -45c34 27 73 45 120 45c109 0 162 -76 162 -175v-229zM437 628c0 -22 -15 -40 -38 -57
c-63 -46 -127 -23 -192 -6c-27 7 -46 9 -63 -7c-13 -11 -43 -27 -61 -9c-16 33 8 62 32 79c60 45 128 23 191 6c28 -8 45 -9 63 7c14 12 41 27 59 10c5 -6 9 -13 9 -23z" />
    <glyph glyph-name="oacute" unicode="&#xf3;" horiz-adv-x="597" 
d="M552 225c0 -149 -114 -237 -253 -237s-254 89 -254 237c0 149 115 237 254 237s253 -89 253 -237zM445 222c0 86 -60 146 -146 146s-146 -60 -146 -146s60 -145 146 -145c85 0 146 60 146 145zM462 641c9 -17 10 -38 -17 -48l-251 -89l-24 47l229 134c24 14 40 -2 46 -14
z" />
    <glyph glyph-name="ograve" unicode="&#xf2;" horiz-adv-x="597" 
d="M552 225c0 -149 -114 -237 -253 -237s-254 89 -254 237c0 149 115 237 254 237s253 -89 253 -237zM445 222c0 86 -60 146 -146 146s-146 -60 -146 -146s60 -145 146 -145c85 0 146 60 146 145zM455 552l-24 -48l-256 87c-27 9 -23 32 -19 42l21 42c5 10 20 27 45 13z" />
    <glyph glyph-name="ocircumflex" unicode="&#xf4;" horiz-adv-x="597" 
d="M552 225c0 -149 -114 -237 -253 -237s-254 89 -254 237c0 149 115 237 254 237s253 -89 253 -237zM445 222c0 86 -60 146 -146 146s-146 -60 -146 -146s60 -145 146 -145c85 0 146 60 146 145zM461 523c-13 -10 -24 -11 -37 -4l-125 66l-124 -65c-13 -11 -33 -1 -38 4
c-9 8 -16 35 3 46l125 98c9 9 24 13 34 13c12 0 26 -6 34 -12l126 -99c20 -12 9 -39 2 -47z" />
    <glyph glyph-name="odieresis" unicode="&#xf6;" horiz-adv-x="597" 
d="M552 225c0 -149 -114 -237 -253 -237s-254 89 -254 237c0 149 115 237 254 237s253 -89 253 -237zM445 222c0 86 -60 146 -146 146s-146 -60 -146 -146s60 -145 146 -145c85 0 146 60 146 145zM485 596c0 -41 -29 -69 -70 -69c-39 0 -69 29 -69 69c0 37 34 68 69 68
c39 0 70 -29 70 -68zM252 596c0 -40 -27 -69 -69 -69c-38 0 -70 30 -70 69c0 37 34 68 70 68c38 0 69 -30 69 -68z" />
    <glyph glyph-name="otilde" unicode="&#xf5;" horiz-adv-x="597" 
d="M552 225c0 -149 -114 -237 -253 -237s-254 89 -254 237c0 149 115 237 254 237s253 -89 253 -237zM445 222c0 86 -60 146 -146 146s-146 -60 -146 -146s60 -145 146 -145c85 0 146 60 146 145zM478 628c0 -22 -15 -40 -38 -57c-63 -46 -127 -23 -192 -6
c-27 7 -46 9 -63 -7c-13 -11 -43 -27 -61 -9c-16 33 8 62 32 79c60 45 128 23 191 6c28 -8 45 -9 63 7c14 12 41 27 59 10c5 -6 9 -13 9 -23z" />
    <glyph glyph-name="uacute" unicode="&#xfa;" horiz-adv-x="529" 
d="M459 57c0 -35 2 -69 -48 -69c-33 0 -47 17 -49 46c-38 -25 -76 -43 -127 -43c-114 0 -165 65 -165 174v227c0 36 -2 70 49 70s49 -33 49 -70v-210c0 -66 23 -97 87 -97c58 0 106 39 106 97v210c0 36 -2 70 49 70c52 0 49 -33 49 -70v-335zM441 641c9 -17 10 -38 -17 -48
l-251 -89l-24 47l229 134c24 14 40 -2 46 -14z" />
    <glyph glyph-name="ugrave" unicode="&#xf9;" horiz-adv-x="529" 
d="M459 57c0 -35 2 -69 -48 -69c-33 0 -47 17 -49 46c-38 -25 -76 -43 -127 -43c-114 0 -165 65 -165 174v227c0 36 -2 70 49 70s49 -33 49 -70v-210c0 -66 23 -97 87 -97c58 0 106 39 106 97v210c0 36 -2 70 49 70c52 0 49 -33 49 -70v-335zM405 553l-24 -48l-256 87
c-27 9 -23 32 -19 42l21 42c5 10 20 27 45 13z" />
    <glyph glyph-name="ucircumflex" unicode="&#xfb;" horiz-adv-x="529" 
d="M459 57c0 -35 2 -69 -48 -69c-33 0 -47 17 -49 46c-38 -25 -76 -43 -127 -43c-114 0 -165 65 -165 174v227c0 36 -2 70 49 70s49 -33 49 -70v-210c0 -66 23 -97 87 -97c58 0 106 39 106 97v210c0 36 -2 70 49 70c52 0 49 -33 49 -70v-335zM425 523
c-13 -10 -24 -11 -37 -4l-125 66l-124 -65c-13 -11 -33 -1 -38 4c-9 8 -16 35 3 46l125 98c9 9 24 13 34 13c12 0 26 -6 34 -12l126 -99c20 -12 9 -39 2 -47z" />
    <glyph glyph-name="udieresis" unicode="&#xfc;" horiz-adv-x="529" 
d="M459 57c0 -35 2 -69 -48 -69c-33 0 -47 17 -49 46c-38 -25 -76 -43 -127 -43c-114 0 -165 65 -165 174v227c0 36 -2 70 49 70s49 -33 49 -70v-210c0 -66 23 -97 87 -97c58 0 106 39 106 97v210c0 36 -2 70 49 70c52 0 49 -33 49 -70v-335zM452 596c0 -41 -29 -69 -70 -69
c-39 0 -69 29 -69 69c0 37 34 68 69 68c39 0 70 -29 70 -68zM219 596c0 -40 -27 -69 -69 -69c-38 0 -70 30 -70 69c0 37 34 68 70 68c38 0 69 -30 69 -68z" />
    <glyph glyph-name="dagger" unicode="&#x2020;" horiz-adv-x="471" 
d="M421 402c0 -23 -20 -43 -43 -43h-96v-373c0 -25 -17 -49 -47 -49c-31 0 -45 24 -45 49v373h-97c-23 0 -43 20 -43 43s18 44 43 44h97v117c0 24 13 50 45 50c31 0 47 -26 47 -50v-117h96c24 0 43 -23 43 -44z" />
    <glyph glyph-name="degree" unicode="&#xb0;" horiz-adv-x="442" 
d="M382 503c0 -91 -70 -161 -161 -161s-161 70 -161 161c0 90 72 161 161 161s161 -71 161 -161zM298 503c0 45 -34 80 -77 80s-77 -35 -77 -80c0 -44 34 -79 77 -79s77 35 77 79z" />
    <glyph glyph-name="cent" unicode="&#xa2;" horiz-adv-x="516" 
d="M471 220c0 -59 -108 -104 -154 -116v-97c0 -29 -23 -46 -48 -46c-27 0 -45 15 -45 44l1 98c-115 18 -175 108 -175 204c0 91 53 181 163 206v90c0 28 23 45 48 45c27 0 45 -15 45 -44v-87c54 -11 154 -51 158 -105c-2 -23 -13 -41 -41 -44c-40 0 -69 59 -153 59
c-73 0 -122 -46 -122 -121c0 -81 57 -119 120 -118c32 1 65 11 92 31c19 13 42 40 66 40s45 -13 45 -39z" />
    <glyph glyph-name="sterling" unicode="&#xa3;" horiz-adv-x="522" 
d="M459 87c25 -45 -79 -87 -109 -87c-46 0 -88 23 -133 23c-35 0 -66 -26 -96 -26c-23 0 -38 27 -38 44c0 22 32 35 47 46c19 15 32 44 32 79c0 22 -5 48 -20 96h-30c-19 0 -32 14 -32 32v21c0 18 13 27 29 27h10c-13 46 -19 82 -19 117c0 96 72 165 170 165
c26 0 103 -7 138 -37c21 -18 35 -32 15 -64c-19 -31 -47 -22 -69 -5c-21 16 -41 24 -70 24c-55 0 -82 -29 -82 -76c0 -28 6 -69 22 -124h154c22 0 34 -11 34 -32v-16c0 -18 -11 -32 -31 -32h-132c8 -33 13 -60 13 -83c0 -22 -5 -42 -12 -63c33 -3 64 -17 97 -17
c32 0 58 28 72 28c23 0 30 -23 40 -40z" />
    <glyph glyph-name="section" unicode="&#xa7;" horiz-adv-x="576" 
d="M516 144c0 -51 -26 -84 -65 -105c1 -8 2 -15 2 -22c0 -97 -89 -122 -169 -122h-134c-26 0 -51 11 -51 45c0 33 29 45 51 45h142c24 0 57 4 57 34c0 39 -52 71 -80 90l-129 87c-44 30 -80 75 -80 134c0 53 27 83 66 107v22c0 58 43 101 94 113c17 4 41 6 71 6h141
c26 0 49 -11 49 -44s-27 -44 -49 -44h-132c-28 0 -73 1 -73 -36c0 -38 45 -67 72 -85l124 -84c48 -33 93 -72 93 -141zM418 143c0 24 -32 47 -50 59c-4 3 -133 87 -170 118c-12 9 -22 20 -32 32c-7 -5 -9 -10 -9 -19c0 -28 37 -50 56 -66l108 -75c39 -26 68 -50 86 -71
c7 5 11 12 11 22z" />
    <glyph glyph-name="bullet" unicode="&#x2022;" horiz-adv-x="425" 
d="M355 311c0 -80 -63 -143 -142 -143c-80 0 -143 63 -143 143c0 77 63 142 143 142c79 0 142 -63 142 -142z" />
    <glyph glyph-name="paragraph" unicode="&#xb6;" horiz-adv-x="568" 
d="M488 546c0 -26 -21 -34 -42 -34h-17v-585c0 -15 -6 -45 -37 -45c-30 0 -36 29 -36 44v586h-49v-585c0 -15 -7 -45 -37 -45c-31 0 -36 29 -36 44v344c-84 6 -184 46 -184 154c0 113 111 154 198 154h198c19 0 42 -7 42 -32z" />
    <glyph glyph-name="germandbls" unicode="&#xdf;" horiz-adv-x="577" 
d="M517 195c0 -118 -62 -205 -190 -205c-36 0 -101 -5 -101 50c0 27 19 43 43 43c16 0 32 -2 47 -2c71 0 95 47 95 118c0 56 -26 111 -80 119c-30 4 -100 -2 -100 45c0 37 41 44 69 48c39 5 62 26 62 63c0 48 -43 76 -94 76c-86 0 -86 -52 -86 -137v-355
c0 -37 1 -70 -51 -70c-49 0 -51 31 -51 70v373c0 144 26 208 195 208c91 0 189 -46 189 -157c0 -50 -23 -83 -59 -104c77 -27 112 -100 112 -183z" />
    <glyph glyph-name="registered" unicode="&#xae;" horiz-adv-x="848" 
d="M768 295c0 -190 -152 -345 -344 -345c-193 0 -344 153 -344 345s152 344 344 344c190 0 344 -153 344 -344zM698 295c0 151 -123 274 -274 274s-274 -123 -274 -274s123 -273 274 -273c150 0 274 124 274 273zM568 161c0 -22 -18 -38 -37 -38c-15 0 -26 8 -32 18l-60 91
c-15 23 -22 32 -42 32h-22v-105c0 -21 -17 -36 -36 -36s-36 15 -36 36v285c0 20 13 33 33 33h68c61 0 151 -8 151 -108c0 -44 -24 -75 -58 -91l63 -94c4 -7 8 -15 8 -23zM480 370c0 29 -26 41 -61 41h-44v-81h42c38 0 63 10 63 40z" />
    <glyph glyph-name="copyright" unicode="&#xa9;" horiz-adv-x="848" 
d="M768 295c0 -190 -152 -345 -344 -345c-193 0 -344 153 -344 345s152 344 344 344c190 0 344 -153 344 -344zM698 295c0 151 -123 274 -274 274s-274 -123 -274 -274s123 -273 274 -273c150 0 274 124 274 273zM564 155c-29 -37 -98 -56 -139 -56c-113 0 -181 91 -181 196
c0 106 68 198 183 198c36 0 99 -19 125 -52c29 -35 -6 -77 -44 -55c-27 15 -48 38 -81 38c-68 0 -100 -57 -100 -125c0 -69 33 -125 101 -125c30 0 55 12 82 30c16 12 36 21 54 2c18 -17 10 -38 0 -51z" />
    <glyph glyph-name="trademark" unicode="&#x2122;" horiz-adv-x="622" 
d="M552 357c0 -17 -15 -30 -30 -30c-16 0 -27 10 -30 27l-5 133l-19 -57c-6 -16 -18 -25 -36 -25c-19 0 -30 7 -36 25l-19 54l-3 -130c0 -16 -14 -27 -30 -27c-15 0 -31 12 -30 29l7 232c1 25 20 30 39 30c16 0 32 -5 38 -25l35 -100l35 100c7 18 22 25 38 25
c18 0 37 -6 38 -29zM295 584c0 -17 -13 -29 -30 -29h-64v-198c0 -17 -13 -31 -31 -31c-17 0 -31 14 -31 31v198h-64c-16 0 -30 12 -30 30c0 16 14 30 30 30h190c18 0 30 -15 30 -31z" />
    <glyph glyph-name="acute" unicode="&#xb4;" horiz-adv-x="617" 
d="M487 641c9 -17 10 -38 -17 -48l-251 -89l-24 47l229 134c24 14 40 -2 46 -14z" />
    <glyph glyph-name="dieresis" unicode="&#xa8;" horiz-adv-x="612" 
d="M492 596c0 -41 -29 -69 -70 -69c-39 0 -69 29 -69 69c0 37 34 68 69 68c39 0 70 -29 70 -68zM259 596c0 -40 -27 -69 -69 -69c-38 0 -70 30 -70 69c0 37 34 68 70 68c38 0 69 -30 69 -68z" />
    <glyph glyph-name="notequal" unicode="&#x2260;" horiz-adv-x="595" 
d="M545 231c0 -27 -15 -49 -43 -49h-252l-73 -90c-8 -10 -21 -19 -34 -19c-22 0 -50 24 -50 48c0 23 24 45 37 61h-37c-28 0 -43 22 -43 49c0 29 15 45 43 45h116l50 60h-166c-28 0 -43 20 -43 48s15 48 43 48h244l75 89c8 10 20 19 34 19c22 0 50 -24 50 -47
s-25 -46 -38 -61h44c27 0 43 -20 43 -48s-15 -48 -43 -48h-126l-51 -60h177c28 0 43 -16 43 -45z" />
    <glyph glyph-name="AE" unicode="&#xc6;" horiz-adv-x="590" 
d="M550 531c0 -26 -22 -48 -48 -48h-171v-129h87c23 0 40 -19 40 -41s-18 -40 -40 -40h-86v-180h169c27 0 48 -21 48 -47s-21 -47 -47 -47h-217c-27 0 -47 22 -47 48v136h-77l-48 -147c-6 -19 -21 -37 -46 -37c-34 0 -55 34 -44 63l169 486c6 18 24 30 44 30h266
c26 0 48 -21 48 -47zM238 266v179l-54 -179h54z" />
    <glyph glyph-name="Oslash" unicode="&#xd8;" horiz-adv-x="611" 
d="M571 289c0 -156 -91 -304 -266 -304c-39 0 -80 9 -116 28l-31 -49c-27 -43 -105 -4 -76 44l37 59c-55 60 -79 144 -79 222c0 157 90 304 265 304c43 0 77 -7 113 -26l27 42c32 50 102 -1 75 -45l-31 -51c58 -64 82 -139 82 -224zM458 289c0 48 -5 90 -25 129l-193 -322
c20 -10 42 -16 65 -16c113 0 153 101 153 209zM368 483c-20 9 -41 15 -63 15c-113 0 -153 -102 -153 -209c0 -49 4 -88 24 -126z" />
    <glyph glyph-name="plusminus" unicode="&#xb1;" horiz-adv-x="500" 
d="M450 401c0 -31 -24 -48 -51 -48h-100v-125c0 -27 -17 -50 -48 -50c-29 0 -50 23 -50 50v125h-100c-25 0 -51 17 -51 48c0 30 26 49 51 49h100v124c0 28 19 52 50 52s48 -25 48 -52v-124h100c27 0 51 -17 51 -49zM450 68c0 -31 -24 -48 -51 -48h-298c-27 0 -51 17 -51 48
c0 30 27 48 51 48h298c25 0 51 -17 51 -48z" />
    <glyph glyph-name="lessequal" unicode="&#x2264;" horiz-adv-x="716" 
d="M676 286c0 -28 -25 -46 -48 -46h-377l106 -44c29 -12 62 -38 43 -78c-17 -36 -61 -20 -80 -10l-235 122c-26 13 -45 31 -45 55c0 25 19 42 45 56l235 122c19 9 63 26 80 -10c19 -40 -14 -67 -43 -78l-105 -44h376c24 0 48 -16 48 -45z" />
    <glyph glyph-name="greaterequal" unicode="&#x2265;" horiz-adv-x="716" 
d="M676 285c0 -24 -20 -42 -46 -55l-234 -122c-19 -10 -63 -26 -80 10c-19 40 13 67 42 78l109 44h-379c-24 0 -48 18 -48 46c0 29 23 45 48 45h378l-108 44c-29 11 -61 38 -42 78c17 36 61 19 80 10l234 -122c26 -14 46 -31 46 -56z" />
    <glyph glyph-name="yen" unicode="&#xa5;" horiz-adv-x="556" 
d="M489 522l-87 -165h45c12 0 41 -8 41 -33v-7c0 -21 -21 -37 -38 -37h-89l-17 -31h103c13 0 41 -10 41 -34v-8c0 -22 -22 -35 -38 -35h-121v-132c0 -29 -22 -52 -51 -52s-51 23 -51 52v132h-126c-20 0 -36 16 -36 36v8c0 23 26 33 38 33h107l-17 31h-92
c-20 0 -36 16 -36 37v7c0 24 26 33 38 33h51l-88 165c-30 58 58 108 90 47l122 -232l121 232c33 61 121 11 90 -47z" />
    <glyph glyph-name="mu" unicode="&#xb5;" horiz-adv-x="531" 
d="M461 52c0 -36 -1 -70 -51 -70c-33 0 -50 14 -52 45c-34 -28 -74 -44 -126 -44c-25 0 -43 2 -63 14v-127c0 -35 1 -70 -50 -70s-49 34 -49 70v522c0 36 -2 70 49 70c53 0 52 -33 52 -70v-227c0 -60 6 -88 69 -88c66 0 121 47 121 111l-1 204c0 36 -2 70 50 70
s51 -33 51 -70v-340z" />
    <glyph glyph-name="mu" unicode="&#x3bc;" horiz-adv-x="531" 
d="M461 52c0 -36 -1 -70 -51 -70c-33 0 -50 14 -52 45c-34 -28 -74 -44 -126 -44c-25 0 -43 2 -63 14v-127c0 -35 1 -70 -50 -70s-49 34 -49 70v522c0 36 -2 70 49 70c53 0 52 -33 52 -70v-227c0 -60 6 -88 69 -88c66 0 121 47 121 111l-1 204c0 36 -2 70 50 70
s51 -33 51 -70v-340z" />
    <glyph glyph-name="product" unicode="&#x220f;" horiz-adv-x="716" 
d="M664 304c0 -39 -11 -64 -53 -64h-350l109 -44c28 -11 61 -38 42 -78c-17 -36 -61 -20 -80 -10l-234 122c-27 13 -46 31 -46 55c0 25 19 42 46 56l234 122c19 9 63 26 80 -10c19 -40 -14 -67 -42 -78l-109 -44h305v289c0 37 -2 69 50 69c51 0 48 -34 48 -70v-315z" />
    <glyph glyph-name="pi" unicode="&#x3c0;" horiz-adv-x="716" 
d="M664 285c0 -24 -20 -42 -46 -55l-234 -122c-19 -10 -63 -26 -80 10c-19 40 13 67 42 78l109 44h-350c-42 0 -53 25 -53 63v316c0 36 -3 70 48 70c52 0 49 -32 49 -69v-289h305l-108 44c-29 11 -61 38 -42 78c17 36 61 19 80 10l234 -122c26 -14 46 -31 46 -56z" />
    <glyph glyph-name="integral" unicode="&#x222b;" horiz-adv-x="278" 
d="M438 719c0 -30 -20 -49 -49 -49c-36 0 -69 14 -105 14c-116 0 -97 -324 -98 -390c-1 -67 -4 -135 -7 -202c-2 -28 -3 -56 -7 -83c-17 -108 -79 -168 -187 -168c-28 0 -145 11 -145 57c0 30 21 49 49 49c37 0 72 -14 108 -14c104 0 91 304 93 365c2 63 2 126 5 189
c5 141 9 289 201 289c28 0 142 -10 142 -57z" />
    <glyph glyph-name="ordfeminine" unicode="&#xaa;" horiz-adv-x="558" 
d="M441 299c0 -24 -19 -42 -42 -42c-22 0 -41 15 -43 37c-35 -23 -77 -37 -120 -37c-73 0 -135 41 -135 122c0 109 104 136 182 136c24 0 49 -3 72 -8c-5 37 -25 53 -67 53s-79 -31 -109 -31c-29 0 -40 27 -40 45c0 49 126 65 158 65c92 0 144 -50 144 -143v-197zM458 161
c0 -16 -13 -30 -29 -30h-300c-19 0 -29 13 -29 30v25c0 18 14 28 29 28h300c14 0 29 -8 29 -28v-25zM356 402v28c-20 6 -41 9 -62 9c-37 0 -107 -5 -107 -55c0 -27 26 -43 58 -43c33 0 111 18 111 61z" />
    <glyph glyph-name="ordmasculine" unicode="&#xba;" horiz-adv-x="554" 
d="M484 448c0 -121 -95 -191 -207 -191s-207 71 -207 191c0 121 94 192 207 192s207 -70 207 -192zM478 161c0 -16 -14 -30 -30 -30h-343c-20 0 -29 13 -29 30v25c0 18 14 29 29 29h343c14 0 30 -8 30 -29v-25zM392 448c0 68 -48 113 -115 113s-114 -46 -114 -113
s46 -113 114 -113c67 0 115 46 115 113z" />
    <glyph glyph-name="ae" unicode="&#xe6;" horiz-adv-x="647" 
d="M602 99c0 -74 -117 -110 -164 -110c-54 0 -88 24 -117 62c-37 -33 -81 -62 -136 -62c-80 0 -135 58 -135 137c0 125 103 149 197 149h36v14c0 50 -9 88 -53 88s-105 -69 -136 -32c-58 71 93 119 138 119c44 0 76 -16 102 -47c29 28 67 47 109 47c121 0 156 -116 156 -207
c0 -41 -3 -66 -57 -66h-170v-13c0 -54 19 -96 69 -96c46 0 64 34 98 52c14 7 33 11 52 -5c7 -9 11 -18 11 -30zM500 275c0 41 -6 97 -59 97c-49 0 -69 -45 -69 -97h128zM283 150v41h-8c-47 0 -132 5 -132 -60c0 -32 19 -49 53 -49c41 0 87 30 87 68z" />
    <glyph glyph-name="oslash" unicode="&#xf8;" horiz-adv-x="595" 
d="M550 225c0 -148 -114 -235 -253 -235c-52 0 -100 12 -145 38l-38 -37c-13 -14 -32 -19 -52 2c-19 19 -19 40 -3 55l35 33c-31 43 -49 89 -49 144c0 148 114 235 253 235c53 0 95 -11 140 -36l37 38c14 14 32 18 53 -2c19 -19 18 -40 3 -55l-33 -32c36 -43 52 -91 52 -148
zM451 225c0 28 -9 53 -24 77l-204 -203c26 -14 51 -21 82 -21c83 0 146 64 146 147zM369 355c-23 13 -47 20 -74 20c-87 0 -146 -57 -146 -144c0 -28 6 -52 19 -76z" />
    <glyph glyph-name="questiondown" unicode="&#xbf;" horiz-adv-x="484" 
d="M358 510c0 -60 -50 -84 -93 -84c-42 0 -93 23 -93 84s51 85 93 85c43 0 93 -26 93 -85zM413 102c19 -24 11 -46 -3 -65c-41 -57 -122 -62 -174 -62c-96 0 -176 67 -176 178c0 106 88 152 160 181v16c0 29 19 48 45 48s45 -17 45 -47c0 -83 8 -75 -77 -113
c-56 -25 -77 -56 -77 -86c0 -103 158 -101 191 -45c22 24 50 16 66 -5z" />
    <glyph glyph-name="exclamdown" unicode="&#xa1;" horiz-adv-x="364" 
d="M274 529c0 -55 -41 -88 -92 -88s-92 33 -92 88s41 88 92 88s92 -35 92 -88zM251 38c2 -40 -24 -73 -69 -73c-44 0 -70 34 -68 73l16 301c2 30 23 49 52 49s51 -19 53 -49z" />
    <glyph glyph-name="logicalnot" unicode="&#xac;" horiz-adv-x="610" 
d="M550 211c0 -27 -18 -50 -49 -50c-28 0 -49 25 -49 50v139h-351c-27 0 -51 18 -51 48c0 29 26 46 51 46h409c19 0 40 -9 40 -31v-202z" />
    <glyph glyph-name="florin" unicode="&#x192;" horiz-adv-x="536" 
d="M495 577c3 -22 -16 -43 -38 -43s-44 12 -67 12c-63 0 -75 -27 -75 -92v-50h55c26 0 57 -3 58 -38c1 -37 -27 -43 -55 -43h-58l1 -291c0 -114 -50 -170 -168 -170c-15 0 -48 3 -72 14c-25 11 -52 35 -25 71c22 29 80 4 110 4c60 0 59 59 59 108v264h-48
c-28 0 -56 6 -55 43c1 35 32 38 58 38h45v59c0 111 50 168 166 168c35 0 104 -6 109 -54z" />
    <glyph glyph-name="guillemotleft" unicode="&#xab;" horiz-adv-x="453" 
d="M390 98c12 -26 -15 -52 -39 -52c-16 0 -31 10 -38 23l-70 129c-10 20 -10 35 0 55l70 130c7 13 21 23 38 23c19 0 53 -23 39 -53l-60 -128zM214 98c12 -26 -14 -52 -38 -52c-15 0 -31 9 -38 23l-70 129c-11 20 -11 35 0 55l70 130c6 13 22 23 38 23c28 0 49 -30 38 -53
l-59 -128z" />
    <glyph glyph-name="guillemotright" unicode="&#xbb;" horiz-adv-x="453" 
d="M385 198l-70 -129c-7 -14 -23 -23 -38 -23c-24 0 -50 26 -38 52l59 127l-59 128c-11 23 10 53 38 53c16 0 31 -10 38 -23l70 -130c11 -20 11 -35 0 -55zM209 198l-69 -129c-7 -13 -23 -23 -38 -23c-24 0 -51 26 -39 52l60 127l-60 128c-14 30 20 53 39 53
c16 0 31 -10 38 -23l69 -130c11 -20 11 -35 0 -55z" />
    <glyph glyph-name="ellipsis" unicode="&#x2026;" horiz-adv-x="673" 
d="M613 64c0 -44 -36 -78 -79 -78s-78 34 -78 78c0 43 34 78 78 78s79 -34 79 -78zM414 64c0 -44 -34 -78 -77 -78s-79 34 -79 78s35 78 79 78c43 0 77 -35 77 -78zM216 64c0 -44 -35 -78 -78 -78c-44 0 -78 34 -78 78c0 43 34 78 78 78c45 0 78 -33 78 -78z" />
    <glyph glyph-name="Agrave" unicode="&#xc0;" horiz-adv-x="547" 
d="M516 74c12 -31 24 -63 -18 -81c-39 -17 -58 15 -69 45l-47 127h-216l-47 -127c-11 -30 -32 -61 -70 -45c-41 18 -30 48 -18 81l178 474c10 28 32 49 65 49c31 0 54 -20 64 -49zM348 255l-75 204l-74 -204h149zM407 684l-24 -47l-256 86c-27 9 -23 32 -19 43l21 42
c5 10 20 27 45 13z" />
    <glyph glyph-name="Atilde" unicode="&#xc3;" horiz-adv-x="547" 
d="M516 74c12 -31 24 -63 -18 -81c-39 -17 -58 15 -69 45l-47 127h-216l-47 -127c-11 -30 -32 -61 -70 -45c-41 18 -30 48 -18 81l178 474c10 28 32 49 65 49c31 0 54 -20 64 -49zM348 255l-75 204l-74 -204h149zM449 760c0 -22 -15 -40 -38 -57c-63 -46 -127 -23 -192 -6
c-27 7 -46 9 -63 -7c-13 -11 -43 -27 -61 -9c-16 33 8 62 32 79c60 45 128 23 191 6c28 -8 45 -9 63 7c14 12 41 27 59 10c5 -6 9 -13 9 -23z" />
    <glyph glyph-name="Otilde" unicode="&#xd5;" horiz-adv-x="611" 
d="M571 291c0 -156 -92 -306 -267 -306c-172 0 -264 152 -264 306c0 156 90 304 265 304s266 -149 266 -304zM458 291c0 106 -41 210 -153 210c-114 0 -153 -103 -153 -210s39 -211 152 -211s154 104 154 211zM483 760c0 -22 -15 -40 -38 -57c-63 -46 -127 -23 -192 -6
c-27 7 -46 9 -63 -7c-13 -11 -43 -27 -61 -9c-16 33 8 62 32 79c60 45 128 23 191 6c28 -8 45 -9 63 7c14 12 41 27 59 10c5 -6 9 -13 9 -23z" />
    <glyph glyph-name="OE" unicode="&#x152;" horiz-adv-x="625" 
d="M585 45c0 -25 -21 -45 -46 -45h-218c-40 0 -73 3 -97 8c-136 27 -184 162 -184 281c0 118 43 255 183 283c27 6 60 7 99 7h217c25 0 46 -21 46 -46c0 -24 -21 -44 -46 -44h-168v-152h83c22 0 40 -17 40 -40c0 -22 -18 -39 -40 -39h-83v-168h169c24 0 45 -20 45 -45z
M277 89v401c-106 0 -132 -101 -132 -201c0 -99 23 -200 129 -200h3z" />
    <glyph glyph-name="oe" unicode="&#x153;" horiz-adv-x="627" 
d="M579 257c0 -44 -4 -66 -59 -66h-164c0 -49 5 -111 67 -111c45 0 63 35 96 53c14 8 33 12 52 -4c31 -39 -13 -87 -42 -106c-34 -23 -70 -35 -110 -35c-46 0 -83 17 -110 52c-28 -32 -60 -52 -109 -52c-129 0 -155 156 -155 241c0 92 33 236 162 236c45 0 78 -22 105 -52
c29 30 67 52 112 52c118 0 155 -120 155 -208zM480 274c0 39 -8 98 -56 98c-51 0 -66 -44 -67 -98h123zM268 215c0 45 2 157 -64 157c-61 0 -62 -104 -62 -147c0 -42 3 -145 63 -145c59 0 63 94 63 135z" />
    <glyph glyph-name="endash" unicode="&#x2013;" horiz-adv-x="616" 
d="M556 208c0 -20 -17 -35 -36 -35h-426c-23 0 -34 18 -34 35v36c0 20 17 33 34 33h426c15 0 36 -9 36 -33v-36z" />
    <glyph glyph-name="emdash" unicode="&#x2014;" horiz-adv-x="733" 
d="M673 208c0 -20 -18 -35 -37 -35h-542c-23 0 -34 18 -34 35v36c0 20 17 33 34 33h542c16 0 37 -9 37 -33v-36z" />
    <glyph glyph-name="quotedblleft" unicode="&#x201c;" horiz-adv-x="493" 
d="M442 554l-51 -199c-5 -17 -5 -23 -23 -23h-106c-12 0 -19 13 -12 27l109 224c7 16 14 19 25 15c12 -4 40 -14 48 -17c12 -4 14 -14 10 -27zM243 554l-51 -199c-5 -17 -5 -23 -24 -23h-105c-12 0 -19 13 -12 27l108 224c8 16 14 19 26 15c11 -4 40 -14 48 -17
c11 -4 13 -14 10 -27z" />
    <glyph glyph-name="quotedblright" unicode="&#x201d;" horiz-adv-x="498" 
d="M444 551l-109 -224c-8 -16 -14 -19 -25 -15c-12 4 -40 14 -48 17c-12 4 -14 15 -11 27l52 203c3 11 9 20 20 20h108c12 0 20 -13 13 -28zM244 551l-108 -224c-8 -16 -14 -19 -26 -15c-11 4 -40 14 -48 17c-11 4 -13 15 -10 27l52 203c3 11 8 20 19 20h109
c12 0 19 -13 12 -28z" />
    <glyph glyph-name="quoteleft" unicode="&#x2018;" horiz-adv-x="293" 
d="M243 554l-51 -199c-5 -17 -5 -23 -24 -23h-105c-12 0 -19 13 -12 27l108 224c8 16 14 19 26 15c11 -4 40 -14 48 -17c11 -4 13 -14 10 -27z" />
    <glyph glyph-name="quoteright" unicode="&#x2019;" horiz-adv-x="299" 
d="M244 551l-108 -224c-8 -16 -14 -19 -26 -15c-11 4 -40 14 -48 17c-11 4 -13 15 -10 27l52 203c3 11 8 20 19 20h109c12 0 19 -13 12 -28z" />
    <glyph glyph-name="divide" unicode="&#xf7;" horiz-adv-x="615" 
d="M373 451c0 -36 -29 -66 -65 -66s-65 30 -65 66c0 35 29 65 65 65s65 -30 65 -65zM555 308c0 -24 -12 -48 -43 -48h-409c-32 0 -43 24 -43 48c0 23 11 47 43 47h409c32 0 43 -25 43 -47zM373 164c0 -36 -29 -65 -65 -65s-65 29 -65 65c0 35 29 65 65 65s65 -30 65 -65z
" />
    <glyph glyph-name="ydieresis" unicode="&#xff;" horiz-adv-x="550" 
d="M501 368l-271 -534c-14 -27 -31 -39 -63 -24c-46 22 -28 51 -11 84l75 149l-165 325c-17 33 -30 64 14 86c45 22 61 -5 77 -39l130 -264l141 281c14 27 33 38 64 23c46 -23 25 -56 9 -87zM476 596c0 -41 -29 -69 -70 -69c-39 0 -69 29 -69 69c0 37 34 68 69 68
c39 0 70 -29 70 -68zM243 596c0 -40 -27 -69 -69 -69c-38 0 -70 30 -70 69c0 37 34 68 70 68c38 0 69 -30 69 -68z" />
    <glyph glyph-name="Ydieresis" unicode="&#x178;" horiz-adv-x="536" 
d="M472 499l-154 -280v-160c0 -37 2 -71 -50 -71c-50 0 -51 31 -51 71v161l-164 300c-14 27 -11 47 18 64c47 28 62 1 81 -34l116 -223l128 243c16 31 39 33 69 14c42 -26 24 -54 7 -85zM454 728c0 -41 -29 -69 -70 -69c-39 0 -69 29 -69 69c0 37 34 68 69 68
c39 0 70 -29 70 -68zM221 728c0 -40 -27 -69 -69 -69c-38 0 -70 30 -70 69c0 37 34 68 70 68c38 0 69 -30 69 -68z" />
    <glyph glyph-name="fraction" unicode="&#x2044;" horiz-adv-x="597" 
d="M511 347l-392 -198c-23 -12 -44 -3 -54 15c-10 22 -5 43 19 56l391 198c53 27 89 -44 36 -71z" />
    <glyph glyph-name="Euro" unicode="&#x20ac;" horiz-adv-x="688" 
d="M614 143c40 -38 -16 -87 -44 -104c-52 -33 -108 -52 -170 -52c-131 0 -233 85 -267 207h-40c-55 0 -36 87 16 87h13c-1 10 0 20 0 29h-29c-34 0 -36 21 -31 47c6 19 21 39 47 39h29c35 116 140 198 264 198c56 0 103 -16 149 -45c29 -19 84 -64 44 -104
c-25 -26 -50 -12 -73 4c-36 24 -75 53 -120 53c-74 0 -125 -41 -151 -106h219c54 0 37 -86 -16 -86h-222c-1 -9 -1 -20 0 -29h197c54 0 35 -87 -16 -87h-161c26 -65 78 -106 152 -106c49 0 94 20 136 49c23 17 47 31 74 6z" />
    <glyph glyph-name="guilsinglleft" unicode="&#x2039;" horiz-adv-x="287" 
d="M214 98c12 -26 -14 -52 -38 -52c-15 0 -31 9 -38 23l-70 129c-11 20 -11 35 0 55l70 130c6 13 22 23 38 23c28 0 49 -30 38 -53l-59 -128z" />
    <glyph glyph-name="guilsinglright" unicode="&#x203a;" horiz-adv-x="287" 
d="M209 198l-69 -129c-7 -13 -23 -23 -38 -23c-24 0 -51 26 -39 52l60 127l-60 128c-14 30 20 53 39 53c16 0 31 -10 38 -23l69 -130c11 -20 11 -35 0 -55z" />
    <glyph glyph-name="daggerdbl" unicode="&#x2021;" horiz-adv-x="471" 
d="M421 147c0 -23 -20 -42 -43 -42h-96v-119c0 -25 -17 -49 -47 -49c-31 0 -45 24 -45 49v119h-97c-23 0 -43 19 -43 42c0 24 18 44 43 44h97v168h-97c-23 0 -43 20 -43 43s18 44 43 44h97v117c0 24 13 50 45 50c31 0 47 -26 47 -50v-117h96c24 0 43 -23 43 -44
c0 -23 -20 -43 -43 -43h-96v-168h96c24 0 43 -22 43 -44z" />
    <glyph glyph-name="periodcentered" unicode="&#xb7;" horiz-adv-x="328" 
d="M267 308c0 -60 -45 -104 -104 -104c-57 0 -104 46 -104 104c0 57 47 103 104 103s104 -46 104 -103z" />
    <glyph glyph-name="quotesinglbase" unicode="&#x201a;" horiz-adv-x="293" 
d="M237 77l-100 -207c-15 -32 -42 -17 -66 -9c-25 9 -22 30 -19 40l47 184c5 20 12 30 37 30h80c29 0 28 -25 21 -38z" />
    <glyph glyph-name="quotedblbase" unicode="&#x201e;" horiz-adv-x="504" 
d="M448 77l-100 -207c-16 -32 -42 -17 -66 -9c-26 9 -22 30 -19 40l46 184c5 20 12 30 37 30h81c29 0 27 -25 21 -38zM237 77l-100 -207c-15 -32 -42 -17 -66 -9c-25 9 -22 30 -19 40l47 184c5 20 12 30 37 30h80c29 0 28 -25 21 -38z" />
    <glyph glyph-name="perthousand" unicode="&#x2030;" horiz-adv-x="882" 
d="M822 122c0 -83 -64 -133 -142 -133c-77 0 -142 50 -142 133c0 82 66 132 142 132c77 0 142 -50 142 -132zM345 484c0 -83 -65 -133 -142 -133s-143 49 -143 133c0 85 66 133 143 133s142 -50 142 -133zM473 362c0 -17 -12 -31 -26 -37l-297 -118c-22 -8 -55 1 -55 35
c0 18 13 31 27 37l296 117c24 10 55 1 55 -34zM516 122c0 -83 -64 -133 -142 -133c-77 0 -143 50 -143 133s67 132 143 132c77 0 142 -50 142 -132zM741 122c0 35 -24 53 -61 53c-35 0 -60 -19 -60 -53c0 -33 25 -54 60 -54s61 21 61 54zM263 484c0 35 -23 54 -60 54
c-35 0 -62 -21 -62 -54c0 -32 27 -53 62 -53c36 0 60 19 60 53zM435 122c0 34 -25 53 -61 53c-35 0 -61 -20 -61 -53c0 -34 26 -54 61 -54s61 21 61 54z" />
    <glyph glyph-name="Acircumflex" unicode="&#xc2;" horiz-adv-x="547" 
d="M516 74c12 -31 24 -63 -18 -81c-39 -17 -58 15 -69 45l-47 127h-216l-47 -127c-11 -30 -32 -61 -70 -45c-41 18 -30 48 -18 81l178 474c10 28 32 49 65 49c31 0 54 -20 64 -49zM348 255l-75 204l-74 -204h149zM433 655c-13 -10 -24 -11 -37 -4l-125 66l-124 -65
c-13 -11 -33 -1 -38 4c-9 8 -16 35 3 46l125 98c9 9 24 13 34 13c12 0 26 -6 34 -12l126 -99c20 -12 9 -39 2 -47z" />
    <glyph glyph-name="Ecircumflex" unicode="&#xca;" horiz-adv-x="535" 
d="M495 46c0 -32 -20 -46 -52 -46h-317c-33 0 -46 22 -46 51v476c0 29 13 52 46 52h317c32 0 52 -16 52 -48s-20 -47 -52 -47h-261v-129h129c29 0 51 -8 51 -42c0 -36 -23 -42 -51 -42h-129v-177h261c32 0 52 -16 52 -48zM438 655c-13 -10 -24 -11 -37 -4l-125 66l-124 -65
c-13 -11 -33 -1 -38 4c-9 8 -16 35 3 46l125 98c9 9 24 13 34 13c12 0 26 -6 34 -12l126 -99c20 -12 9 -39 2 -47z" />
    <glyph glyph-name="Aacute" unicode="&#xc1;" horiz-adv-x="547" 
d="M516 74c12 -31 24 -63 -18 -81c-39 -17 -58 15 -69 45l-47 127h-216l-47 -127c-11 -30 -32 -61 -70 -45c-41 18 -30 48 -18 81l178 474c10 28 32 49 65 49c31 0 54 -20 64 -49zM348 255l-75 204l-74 -204h149zM435 773c9 -17 10 -38 -17 -48l-251 -89l-24 47l229 134
c24 14 40 -2 46 -14z" />
    <glyph glyph-name="Edieresis" unicode="&#xcb;" horiz-adv-x="535" 
d="M495 46c0 -32 -20 -46 -52 -46h-317c-33 0 -46 22 -46 51v476c0 29 13 52 46 52h317c32 0 52 -16 52 -48s-20 -47 -52 -47h-261v-129h129c29 0 51 -8 51 -42c0 -36 -23 -42 -51 -42h-129v-177h261c32 0 52 -16 52 -48zM470 728c0 -41 -29 -69 -70 -69
c-39 0 -69 29 -69 69c0 37 34 68 69 68c39 0 70 -29 70 -68zM237 728c0 -40 -27 -69 -69 -69c-38 0 -70 30 -70 69c0 37 34 68 70 68c38 0 69 -30 69 -68z" />
    <glyph glyph-name="Egrave" unicode="&#xc8;" horiz-adv-x="535" 
d="M495 46c0 -32 -20 -46 -52 -46h-317c-33 0 -46 22 -46 51v476c0 29 13 52 46 52h317c32 0 52 -16 52 -48s-20 -47 -52 -47h-261v-129h129c29 0 51 -8 51 -42c0 -36 -23 -42 -51 -42h-129v-177h261c32 0 52 -16 52 -48zM415 683l-24 -48l-256 87c-27 9 -23 32 -19 42
l21 42c5 10 20 27 45 13z" />
    <glyph glyph-name="Iacute" unicode="&#xcd;" horiz-adv-x="562" 
d="M492 47c0 -45 -37 -47 -70 -47h-303c-29 0 -49 16 -49 47c0 47 38 47 70 47h91v390h-91c-33 0 -70 1 -70 47c0 33 19 48 49 48h325c29 0 48 -16 48 -48c0 -46 -37 -47 -70 -47h-90v-390h90c32 0 70 -1 70 -47zM446 773c9 -17 10 -38 -17 -48l-251 -89l-24 47l229 134
c24 14 40 -2 46 -14z" />
    <glyph glyph-name="Icircumflex" unicode="&#xce;" horiz-adv-x="562" 
d="M492 47c0 -45 -37 -47 -70 -47h-303c-29 0 -49 16 -49 47c0 47 38 47 70 47h91v390h-91c-33 0 -70 1 -70 47c0 33 19 48 49 48h325c29 0 48 -16 48 -48c0 -46 -37 -47 -70 -47h-90v-390h90c32 0 70 -1 70 -47zM443 655c-13 -10 -24 -11 -37 -4l-125 66l-124 -65
c-13 -11 -33 -1 -38 4c-9 8 -16 35 3 46l125 98c9 9 24 13 34 13c12 0 26 -6 34 -12l126 -99c20 -12 9 -39 2 -47z" />
    <glyph glyph-name="Idieresis" unicode="&#xcf;" horiz-adv-x="562" 
d="M492 47c0 -45 -37 -47 -70 -47h-303c-29 0 -49 16 -49 47c0 47 38 47 70 47h91v390h-91c-33 0 -70 1 -70 47c0 33 19 48 49 48h325c29 0 48 -16 48 -48c0 -46 -37 -47 -70 -47h-90v-390h90c32 0 70 -1 70 -47zM470 728c0 -41 -29 -69 -70 -69c-39 0 -69 29 -69 69
c0 37 34 68 69 68c39 0 70 -29 70 -68zM237 728c0 -40 -27 -69 -69 -69c-38 0 -70 30 -70 69c0 37 34 68 70 68c38 0 69 -30 69 -68z" />
    <glyph glyph-name="Igrave" unicode="&#xcc;" horiz-adv-x="562" 
d="M492 47c0 -45 -37 -47 -70 -47h-303c-29 0 -49 16 -49 47c0 47 38 47 70 47h91v390h-91c-33 0 -70 1 -70 47c0 33 19 48 49 48h325c29 0 48 -16 48 -48c0 -46 -37 -47 -70 -47h-90v-390h90c32 0 70 -1 70 -47zM421 684l-24 -48l-256 87c-27 9 -23 32 -19 42l21 42
c5 10 20 27 45 13z" />
    <glyph glyph-name="Oacute" unicode="&#xd3;" horiz-adv-x="611" 
d="M571 291c0 -156 -92 -306 -267 -306c-172 0 -264 152 -264 306c0 156 90 304 265 304s266 -149 266 -304zM458 291c0 106 -41 210 -153 210c-114 0 -153 -103 -153 -210s39 -211 152 -211s154 104 154 211zM464 773c9 -17 10 -38 -17 -48l-251 -89l-24 47l229 134
c24 14 40 -2 46 -14z" />
    <glyph glyph-name="Ocircumflex" unicode="&#xd4;" horiz-adv-x="611" 
d="M571 291c0 -156 -92 -306 -267 -306c-172 0 -264 152 -264 306c0 156 90 304 265 304s266 -149 266 -304zM458 291c0 106 -41 210 -153 210c-114 0 -153 -103 -153 -210s39 -211 152 -211s154 104 154 211zM468 655c-13 -10 -24 -11 -37 -4l-125 66l-124 -65
c-13 -11 -33 -1 -38 4c-9 8 -16 35 3 46l125 98c9 9 24 13 34 13c12 0 26 -6 34 -12l126 -99c20 -12 9 -39 2 -47z" />
    <glyph glyph-name="apple" horiz-adv-x="579" 
d="M420 579c0 -45 -2 -71 -36 -105c-26 -25 -45 -35 -80 -35c0 39 5 63 33 94c22 24 50 40 83 46zM539 154c-26 -57 -69 -154 -144 -154c-11 0 -27 3 -46 11c-37 16 -51 15 -89 0c-20 -8 -34 -11 -45 -11c-97 0 -165 196 -165 271c0 117 93 208 212 162c42 -16 45 -16 86 0
c70 27 131 9 180 -46c-43 -27 -71 -62 -71 -115c0 -56 32 -97 82 -118z" />
    <glyph glyph-name="Ograve" unicode="&#xd2;" horiz-adv-x="611" 
d="M571 291c0 -156 -92 -306 -267 -306c-172 0 -264 152 -264 306c0 156 90 304 265 304s266 -149 266 -304zM458 291c0 106 -41 210 -153 210c-114 0 -153 -103 -153 -210s39 -211 152 -211s154 104 154 211zM458 684l-24 -48l-256 87c-27 9 -23 32 -19 42l21 42
c5 10 20 27 45 13z" />
    <glyph glyph-name="Uacute" unicode="&#xda;" horiz-adv-x="590" 
d="M510 208c0 -134 -85 -222 -215 -222s-215 88 -215 222v317c0 36 -2 70 49 70c53 0 52 -33 52 -70v-290c0 -88 19 -155 114 -155s114 67 114 155v290c0 36 -1 70 50 70c52 0 51 -34 51 -70v-317zM452 773c9 -17 10 -38 -17 -48l-251 -89l-24 47l229 134
c24 14 40 -2 46 -14z" />
    <glyph glyph-name="Ucircumflex" unicode="&#xdb;" horiz-adv-x="590" 
d="M510 208c0 -134 -85 -222 -215 -222s-215 88 -215 222v317c0 36 -2 70 49 70c53 0 52 -33 52 -70v-290c0 -88 19 -155 114 -155s114 67 114 155v290c0 36 -1 70 50 70c52 0 51 -34 51 -70v-317zM456 655c-13 -10 -24 -11 -37 -4l-125 66l-124 -65c-13 -11 -33 -1 -38 4
c-9 8 -16 35 3 46l125 98c9 9 24 13 34 13c12 0 26 -6 34 -12l126 -99c20 -12 9 -39 2 -47z" />
    <glyph glyph-name="Ugrave" unicode="&#xd9;" horiz-adv-x="590" 
d="M510 208c0 -134 -85 -222 -215 -222s-215 88 -215 222v317c0 36 -2 70 49 70c53 0 52 -33 52 -70v-290c0 -88 19 -155 114 -155s114 67 114 155v290c0 36 -1 70 50 70c52 0 51 -34 51 -70v-317zM439 683l-24 -48l-256 87c-27 9 -23 32 -19 42l21 42c5 10 20 27 45 13z
" />
    <glyph glyph-name="dotlessi" unicode="&#x131;" horiz-adv-x="248" 
d="M173 57c0 -36 2 -69 -49 -69c-50 0 -49 31 -49 69v335c0 35 -3 70 48 70s50 -33 50 -70v-335z" />
    <glyph glyph-name="circumflex" unicode="&#x2c6;" horiz-adv-x="601" 
d="M463 523c-13 -10 -24 -11 -37 -4l-125 66l-124 -65c-13 -11 -33 -1 -38 4c-9 8 -16 35 3 46l125 98c9 9 24 13 34 13c12 0 26 -6 34 -12l126 -99c20 -12 9 -39 2 -47z" />
    <glyph glyph-name="tilde" unicode="&#x2dc;" horiz-adv-x="599" 
d="M479 628c0 -22 -15 -40 -38 -57c-63 -46 -127 -23 -192 -6c-27 7 -46 9 -63 -7c-13 -11 -43 -27 -61 -9c-16 33 8 62 32 79c60 45 128 23 191 6c28 -8 45 -9 63 7c14 12 41 27 59 10c5 -6 9 -13 9 -23z" />
    <glyph glyph-name="macron" unicode="&#xaf;" horiz-adv-x="597" 
d="M472 584c0 -17 -12 -29 -29 -29h-289c-16 0 -29 12 -29 29v25c0 17 14 28 29 28h289c16 0 29 -10 29 -28v-25z" />
    <glyph glyph-name="breve" unicode="&#x2d8;" horiz-adv-x="598" 
d="M488 650c0 -85 -124 -119 -189 -119c-64 0 -189 34 -189 119c0 18 6 33 27 33c16 0 28 -11 37 -23c30 -39 72 -41 125 -41c51 0 98 3 124 41c9 11 23 23 38 23c19 0 27 -17 27 -33z" />
    <glyph glyph-name="dotaccent" unicode="&#x2d9;" horiz-adv-x="584" 
d="M364 604c0 -41 -31 -72 -72 -72c-40 0 -72 31 -72 72c0 40 33 71 72 71s72 -31 72 -71z" />
    <glyph glyph-name="ring" unicode="&#x2da;" horiz-adv-x="599" 
d="M429 636c0 -73 -57 -130 -130 -130c-72 0 -129 58 -129 130c0 74 56 130 129 130c72 0 130 -57 130 -130zM348 636c0 27 -22 48 -49 48c-28 0 -48 -20 -48 -48s21 -48 48 -48c26 0 49 22 49 48z" />
    <glyph glyph-name="cedilla" unicode="&#xb8;" horiz-adv-x="604" 
d="M434 -136c0 -75 -62 -97 -118 -97c-29 0 -146 23 -146 65c0 24 23 31 36 31c33 0 63 -24 98 -24c21 0 30 8 30 26c0 15 -12 24 -32 24c-5 0 -20 -2 -42 -9v124h60v-50c53 3 114 -13 114 -90z" />
    <glyph glyph-name="hungarumlaut" unicode="&#x2dd;" horiz-adv-x="605" 
d="M560 643c7 -16 11 -34 -12 -47l-170 -90l-35 39l142 124c15 13 36 21 53 0zM375 643c7 -15 14 -33 -12 -47l-169 -90l-34 39l141 124c37 32 53 1 74 -26z" />
    <glyph glyph-name="ogonek" unicode="&#x2db;" horiz-adv-x="593" 
d="M432 -137c0 -52 -81 -86 -116 -86c-45 0 -86 30 -86 81c0 79 77 135 133 170h67c-67 -55 -105 -91 -105 -135c0 -24 10 -36 29 -36c24 0 39 29 54 29c9 0 24 -7 24 -23z" />
    <glyph glyph-name="caron" unicode="&#x2c7;" horiz-adv-x="602" 
d="M462 673c16 -14 10 -35 0 -45l-127 -100c-20 -16 -49 -16 -68 0l-126 99c-16 9 -13 32 -3 46c8 6 28 11 38 5h-1l126 -67l124 67c12 10 30 1 37 -5z" />
    <glyph glyph-name="nbspace" unicode="&#xa0;" horiz-adv-x="320" 
 />
    </font>
</defs>
</svg>
